<svg xmlns="http://www.w3.org/2000/svg" xmlns:xlink="http://www.w3.org/1999/xlink" viewBox="0 0 385.7 308.81"><defs><style>.cls-1{mask:url(#mask);filter:url(#luminosity-noclip-9);}.cls-10,.cls-12,.cls-14,.cls-16,.cls-2,.cls-4,.cls-6,.cls-8{mix-blend-mode:multiply;}.cls-2{fill:url(#radial-gradient);}.cls-3{mask:url(#mask-2);filter:url(#luminosity-noclip-14);}.cls-4{fill:url(#linear-gradient);}.cls-5{mask:url(#mask-3);filter:url(#luminosity-noclip-15);}.cls-6{fill:url(#linear-gradient-2);}.cls-7{mask:url(#mask-4);filter:url(#luminosity-noclip-16);}.cls-8{fill:url(#linear-gradient-3);}.cls-9{mask:url(#mask-5);filter:url(#luminosity-noclip-10);}.cls-10{fill:url(#radial-gradient-2);}.cls-11{mask:url(#mask-6);filter:url(#luminosity-noclip-11);}.cls-12{fill:url(#linear-gradient-4);}.cls-13{mask:url(#mask-7);filter:url(#luminosity-noclip-12);}.cls-14{fill:url(#radial-gradient-3);}.cls-15{mask:url(#mask-8);filter:url(#luminosity-noclip-13);}.cls-16{fill:url(#radial-gradient-4);}.cls-17{fill:#adafb2;}.cls-18{fill:#8d8f92;}.cls-19{fill:#ffd060;}.cls-20{mask:url(#mask-9);}.cls-21{fill:url(#radial-gradient-5);}.cls-22{fill:#fdba12;}.cls-23{fill:#faa41a;}.cls-24{fill:#75787a;}.cls-25{mask:url(#mask-10);}.cls-26{fill:url(#radial-gradient-6);}.cls-27{fill:#636668;}.cls-28{fill:#925f2d;}.cls-29{fill:#e32a1d;}.cls-30{fill:#005f8f;}.cls-31{fill:#fdb714;}.cls-32{fill:#f7921e;}.cls-33{fill:#fff;}.cls-34{fill:#fffbd2;}.cls-35{fill:#ffed46;}.cls-36{fill:#008789;}.cls-37{fill:#606364;}.cls-38{mask:url(#mask-11);}.cls-39{fill:url(#linear-gradient-5);}.cls-40{mask:url(#mask-12);}.cls-41{fill:url(#radial-gradient-7);}.cls-42{mask:url(#mask-13);}.cls-43{fill:url(#radial-gradient-8);}.cls-44{mask:url(#mask-14);}.cls-45{fill:url(#linear-gradient-6);}.cls-46{mask:url(#mask-15);}.cls-47{fill:url(#linear-gradient-7);}.cls-48{mask:url(#mask-16);}.cls-49{fill:url(#linear-gradient-8);}.cls-50{filter:url(#luminosity-noclip-8);}.cls-51{filter:url(#luminosity-noclip-7);}.cls-52{filter:url(#luminosity-noclip-6);}.cls-53{filter:url(#luminosity-noclip-5);}.cls-54{filter:url(#luminosity-noclip-4);}.cls-55{filter:url(#luminosity-noclip-3);}.cls-56{filter:url(#luminosity-noclip-2);}.cls-57{filter:url(#luminosity-noclip);}</style><filter id="luminosity-noclip" x="283.33" y="-8267.84" width="102.37" height="32766" filterUnits="userSpaceOnUse" color-interpolation-filters="sRGB"><feFlood flood-color="#fff" result="bg"/><feBlend in="SourceGraphic" in2="bg"/></filter><mask id="mask" x="283.33" y="-8267.84" width="102.37" height="32766" maskUnits="userSpaceOnUse"><g class="cls-57"/></mask><radialGradient id="radial-gradient" cx="291.75" cy="43.92" r="71.68" gradientUnits="userSpaceOnUse"><stop offset="0" stop-color="#fff"/><stop offset="1"/></radialGradient><filter id="luminosity-noclip-2" x="137.79" y="-8267.84" width="88.25" height="32766" filterUnits="userSpaceOnUse" color-interpolation-filters="sRGB"><feFlood flood-color="#fff" result="bg"/><feBlend in="SourceGraphic" in2="bg"/></filter><mask id="mask-2" x="137.79" y="-8267.84" width="88.25" height="32766" maskUnits="userSpaceOnUse"><g class="cls-56"/></mask><linearGradient id="linear-gradient" x1="73.14" y1="142.49" x2="208.81" y2="229.56" xlink:href="#radial-gradient"/><filter id="luminosity-noclip-3" x="146.55" y="-8267.84" width="30.26" height="32766" filterUnits="userSpaceOnUse" color-interpolation-filters="sRGB"><feFlood flood-color="#fff" result="bg"/><feBlend in="SourceGraphic" in2="bg"/></filter><mask id="mask-3" x="146.55" y="-8267.84" width="30.26" height="32766" maskUnits="userSpaceOnUse"><g class="cls-55"/></mask><linearGradient id="linear-gradient-2" x1="161.68" y1="110.31" x2="161.68" y2="174.63" xlink:href="#radial-gradient"/><filter id="luminosity-noclip-4" x="209.09" y="-8267.84" width="33.39" height="32766" filterUnits="userSpaceOnUse" color-interpolation-filters="sRGB"><feFlood flood-color="#fff" result="bg"/><feBlend in="SourceGraphic" in2="bg"/></filter><mask id="mask-4" x="209.09" y="-8267.84" width="33.39" height="32766" maskUnits="userSpaceOnUse"><g class="cls-54"/></mask><linearGradient id="linear-gradient-3" x1="177.07" y1="160.88" x2="232.92" y2="156.8" xlink:href="#radial-gradient"/><filter id="luminosity-noclip-5" x="17.55" y="-8267.84" width="107.02" height="32766" filterUnits="userSpaceOnUse" color-interpolation-filters="sRGB"><feFlood flood-color="#fff" result="bg"/><feBlend in="SourceGraphic" in2="bg"/></filter><mask id="mask-5" x="17.55" y="-8267.84" width="107.02" height="32766" maskUnits="userSpaceOnUse"><g class="cls-53"/></mask><radialGradient id="radial-gradient-2" cx="22.41" cy="23.88" r="84.25" xlink:href="#radial-gradient"/><filter id="luminosity-noclip-6" x="47.33" y="-8267.84" width="66.41" height="32766" filterUnits="userSpaceOnUse" color-interpolation-filters="sRGB"><feFlood flood-color="#fff" result="bg"/><feBlend in="SourceGraphic" in2="bg"/></filter><mask id="mask-6" x="47.33" y="-8267.84" width="66.41" height="32766" maskUnits="userSpaceOnUse"><g class="cls-52"/></mask><linearGradient id="linear-gradient-4" x1="20.19" y1="138.14" x2="85.56" y2="203.51" xlink:href="#radial-gradient"/><filter id="luminosity-noclip-7" x="220.18" y="-8267.84" width="47.52" height="32766" filterUnits="userSpaceOnUse" color-interpolation-filters="sRGB"><feFlood flood-color="#fff" result="bg"/><feBlend in="SourceGraphic" in2="bg"/></filter><mask id="mask-7" x="220.18" y="-8267.84" width="47.52" height="32766" maskUnits="userSpaceOnUse"><g class="cls-51"/></mask><radialGradient id="radial-gradient-3" cx="202.75" cy="75.56" r="68.56" gradientUnits="userSpaceOnUse"><stop offset="0" stop-color="#fff"/><stop offset="0.12" stop-color="#c8c8c8"/><stop offset="0.24" stop-color="#939393"/><stop offset="0.37" stop-color="#666"/><stop offset="0.5" stop-color="#414141"/><stop offset="0.63" stop-color="#252525"/><stop offset="0.75" stop-color="#101010"/><stop offset="0.88" stop-color="#040404"/><stop offset="1"/></radialGradient><filter id="luminosity-noclip-8" x="123.21" y="-8267.84" width="43.01" height="32766" filterUnits="userSpaceOnUse" color-interpolation-filters="sRGB"><feFlood flood-color="#fff" result="bg"/><feBlend in="SourceGraphic" in2="bg"/></filter><mask id="mask-8" x="123.21" y="-8267.84" width="43.01" height="32766" maskUnits="userSpaceOnUse"><g class="cls-50"/></mask><radialGradient id="radial-gradient-4" cx="194.32" cy="77.18" r="98.57" xlink:href="#radial-gradient-3"/><filter id="luminosity-noclip-9" x="283.33" y="45.65" width="102.37" height="33.19" filterUnits="userSpaceOnUse" color-interpolation-filters="sRGB"><feFlood flood-color="#fff" result="bg"/><feBlend in="SourceGraphic" in2="bg"/></filter><mask id="mask-9" x="283.33" y="45.65" width="102.37" height="33.19" maskUnits="userSpaceOnUse"><g class="cls-1"><path class="cls-2" d="M328.57,49.25v-3.6h12.36l.63,3.6s34.9,3.6,44.14,13c0,0-2.51,8-47.43,11.11l-.47,5.48h-6.73V74s-36.94-.47-47.74-9.39C283.33,64.59,296.32,50.66,328.57,49.25Z"/></g></mask><radialGradient id="radial-gradient-5" cx="291.75" cy="43.92" r="71.68" gradientUnits="userSpaceOnUse"><stop offset="0" stop-color="#fff"/><stop offset="1" stop-color="#fff"/></radialGradient><filter id="luminosity-noclip-10" x="17.55" y="52" width="107.02" height="21.01" filterUnits="userSpaceOnUse" color-interpolation-filters="sRGB"><feFlood flood-color="#fff" result="bg"/><feBlend in="SourceGraphic" in2="bg"/></filter><mask id="mask-10" x="17.55" y="52" width="107.02" height="21.01" maskUnits="userSpaceOnUse"><g class="cls-9"><path class="cls-10" d="M17.55,53.91s15.92,4.39,46.92,9.88,59.4,9.61,60.09,9.19S105.21,60,75.72,56V54.68S73.39,52.27,65.29,52l-.41,1.84S48.62,50.1,17.55,53.91Z"/></g></mask><radialGradient id="radial-gradient-6" cx="22.41" cy="23.88" r="84.25" xlink:href="#radial-gradient-5"/><filter id="luminosity-noclip-11" x="47.33" y="162.97" width="66.41" height="60.93" filterUnits="userSpaceOnUse" color-interpolation-filters="sRGB"><feFlood flood-color="#fff" result="bg"/><feBlend in="SourceGraphic" in2="bg"/></filter><mask id="mask-11" x="47.33" y="162.97" width="66.41" height="60.93" maskUnits="userSpaceOnUse"><g class="cls-11"><path class="cls-12" d="M48.7,163s14.65,11.48,58.29,9.81c31.25-1.2-55.83,24.33-59,51.13A470,470,0,0,1,48.7,163Z"/></g></mask><linearGradient id="linear-gradient-5" x1="20.19" y1="138.14" x2="85.56" y2="203.51" xlink:href="#radial-gradient-5"/><filter id="luminosity-noclip-12" x="220.18" y="82.37" width="47.52" height="46.86" filterUnits="userSpaceOnUse" color-interpolation-filters="sRGB"><feFlood flood-color="#fff" result="bg"/><feBlend in="SourceGraphic" in2="bg"/></filter><mask id="mask-12" x="220.18" y="82.37" width="47.52" height="46.86" maskUnits="userSpaceOnUse"><g class="cls-13"><path class="cls-14" d="M222.8,129.23l-2.62-40.9s15-13.55,47.52.21C267.7,88.54,224.24,79,222.8,129.23Z"/></g></mask><radialGradient id="radial-gradient-7" cx="202.75" cy="75.56" r="68.56" xlink:href="#radial-gradient-5"/><filter id="luminosity-noclip-13" x="123.21" y="86.73" width="43.01" height="49.63" filterUnits="userSpaceOnUse" color-interpolation-filters="sRGB"><feFlood flood-color="#fff" result="bg"/><feBlend in="SourceGraphic" in2="bg"/></filter><mask id="mask-13" x="123.21" y="86.73" width="43.01" height="49.63" maskUnits="userSpaceOnUse"><g class="cls-15"><path class="cls-16" d="M123.21,91.78s27.88-11.38,43,0l-1.76,44.57S159.27,86.1,123.21,91.78Z"/></g></mask><radialGradient id="radial-gradient-8" cx="194.32" cy="77.18" r="98.57" xlink:href="#radial-gradient-5"/><filter id="luminosity-noclip-14" x="137.79" y="167.08" width="88.25" height="95.5" filterUnits="userSpaceOnUse" color-interpolation-filters="sRGB"><feFlood flood-color="#fff" result="bg"/><feBlend in="SourceGraphic" in2="bg"/></filter><mask id="mask-14" x="137.79" y="167.08" width="88.25" height="95.5" maskUnits="userSpaceOnUse"><g class="cls-3"><path class="cls-4" d="M150.55,255.08s-24.94-32.56-5.1-63.61c28.17-44.06,89.78-14.7,79.42-16.06,0,0-34.14-4.31-57,34.49C144.81,249.11,170,276.49,150.55,255.08Z"/></g></mask><linearGradient id="linear-gradient-6" x1="73.14" y1="142.49" x2="208.81" y2="229.56" xlink:href="#radial-gradient-5"/><filter id="luminosity-noclip-15" x="146.55" y="141.62" width="30.26" height="32.85" filterUnits="userSpaceOnUse" color-interpolation-filters="sRGB"><feFlood flood-color="#fff" result="bg"/><feBlend in="SourceGraphic" in2="bg"/></filter><mask id="mask-15" x="146.55" y="141.62" width="30.26" height="32.85" maskUnits="userSpaceOnUse"><g class="cls-5"><path class="cls-6" d="M176.8,141.62l-.68,14.57s-15.75,3.42-29.57,18.28A47,47,0,0,1,176.8,141.62Z"/></g></mask><linearGradient id="linear-gradient-7" x1="161.68" y1="110.31" x2="161.68" y2="174.63" xlink:href="#radial-gradient-5"/><filter id="luminosity-noclip-16" x="209.09" y="141.3" width="33.39" height="32.04" filterUnits="userSpaceOnUse" color-interpolation-filters="sRGB"><feFlood flood-color="#fff" result="bg"/><feBlend in="SourceGraphic" in2="bg"/></filter><mask id="mask-16" x="209.09" y="141.3" width="33.39" height="32.04" maskUnits="userSpaceOnUse"><g class="cls-7"><path class="cls-8" d="M209.09,141.3l.71,14.47s18.38.26,32.68,17.57C242.48,173.34,240,145.69,209.09,141.3Z"/></g></mask><linearGradient id="linear-gradient-8" x1="177.07" y1="160.88" x2="232.92" y2="156.8" xlink:href="#radial-gradient-5"/></defs><title>bateria</title><g id="Camada_2" data-name="Camada 2"><g id="Layer_1" data-name="Layer 1"><path class="cls-17" d="M332,47.12s2.3-41.67,2.65-44.07.56-2.78,1-3c.64-.27,1.32.16,1.28,1,0,.42,0,44.53,0,44.53l.05,1.94Z"/><path class="cls-18" d="M336.94,40.86a21.2,21.2,0,0,1-4.55-.39c-.22,4-.37,6.65-.37,6.65l5,.47-.05-1.94Z"/><path class="cls-19" d="M328.57,49.25v-3.6h12.36l.63,3.6s34.9,3.6,44.14,13c0,0-2.51,8-47.43,11.11l-.47,5.48h-6.73V74s-36.94-.47-47.74-9.39C283.33,64.59,296.32,50.66,328.57,49.25Z"/><g class="cls-20"><path class="cls-21" d="M328.57,49.25v-3.6h12.36l.63,3.6s34.9,3.6,44.14,13c0,0-2.51,8-47.43,11.11l-.47,5.48h-6.73V74s-36.94-.47-47.74-9.39C283.33,64.59,296.32,50.66,328.57,49.25Z"/></g><polygon class="cls-18" points="332.02 76.16 329.04 260.58 334.29 260.58 336.99 76.16 332.02 76.16"/><path class="cls-17" d="M330.77,153.53,329,260.59h5.25l1.56-107A9.63,9.63,0,0,1,330.77,153.53Z"/><path class="cls-22" d="M283.33,64.59c10.8,8.92,47.74,9.39,47.74,9.39v4.86h6.73l.47-5.48c44.92-3.13,47.43-11.11,47.43-11.11C329.5,75.23,283.33,64.59,283.33,64.59Z"/><path class="cls-23" d="M331.07,74v4.86h6.73l.46-5.36A19.56,19.56,0,0,1,331.07,74Z"/><rect class="cls-18" x="335.22" y="158.8" width="5.21" height="4.49"/><polygon class="cls-17" points="343.11 165.33 339.21 165.33 339.21 155.77 343.11 157.68 343.11 165.33"/><path class="cls-17" d="M359.07,289.89a2.14,2.14,0,0,1-1.51-.61L332,264.19l-26.25,23.89a2.15,2.15,0,0,1-2.89-3.18l27.74-25.25a2.14,2.14,0,0,1,2.95.05l27.06,26.51a2.15,2.15,0,0,1-1.5,3.68Z"/><path class="cls-17" d="M330.05,299.47h-.13a2.13,2.13,0,0,1-2-2.27L330.3,259a2.15,2.15,0,1,1,4.29.27l-2.39,38.15A2.15,2.15,0,0,1,330.05,299.47Z"/><rect class="cls-18" x="326.46" y="256.28" width="11.1" height="7.6"/><path class="cls-17" d="M113.14,290.14a2.12,2.12,0,0,1-1.3-.45L86,270,62.27,288.29a2.15,2.15,0,1,1-2.63-3.4l25-19.32a2.15,2.15,0,0,1,2.61,0l27.19,20.71a2.15,2.15,0,0,1-1.3,3.86Z"/><path class="cls-17" d="M86.39,294.58a2.15,2.15,0,0,1-2.15-2.15V265.22a2.15,2.15,0,1,1,4.29,0v27.21A2.15,2.15,0,0,1,86.39,294.58Z"/><path class="cls-18" d="M85.14,163.27,83.41,266.52h5.26l1.56-103.2A9.56,9.56,0,0,1,85.14,163.27Z"/><rect class="cls-24" x="80.84" y="262.23" width="11.1" height="7.6"/><polygon class="cls-18" points="30.47 99.33 32.95 272.47 38.2 272.47 35.44 99.33 30.47 99.33"/><path class="cls-17" d="M8.18,305a2.14,2.14,0,0,1-1.58-3.61l27.75-29.72a2.15,2.15,0,0,1,3-.13l31.41,28.53a2.15,2.15,0,1,1-2.89,3.18l-29.84-27.1L9.75,304.31A2.13,2.13,0,0,1,8.18,305Z"/><path class="cls-17" d="M36.93,308.81a2.14,2.14,0,0,1-2.15-2.11l-.57-35.6a2.15,2.15,0,1,1,4.3-.07l.56,35.6A2.13,2.13,0,0,1,37,308.81Z"/><rect class="cls-24" x="30.38" y="268.18" width="11.09" height="7.59"/><path class="cls-19" d="M17.55,53.91s15.92,4.39,46.92,9.88,59.4,9.61,60.09,9.19S105.21,60,75.72,56V54.68S73.39,52.27,65.29,52l-.41,1.84S48.62,50.1,17.55,53.91Z"/><g class="cls-25"><path class="cls-26" d="M17.55,53.91s15.92,4.39,46.92,9.88,59.4,9.61,60.09,9.19S105.21,60,75.72,56V54.68S73.39,52.27,65.29,52l-.41,1.84S48.62,50.1,17.55,53.91Z"/></g><path class="cls-22" d="M17.55,53.91s15.92,4.39,46.92,9.88,59.4,9.61,60.09,9.19c0,0-20-6.32-53.65-12.32S17.55,53.91,17.55,53.91Z"/><path class="cls-23" d="M75.72,55.79V54.68S73.39,52.27,65.29,52l-.35,1.58A52.56,52.56,0,0,1,75.72,55.79Z"/><path class="cls-17" d="M62.79,59.27.69,131.69a2.85,2.85,0,0,0,.31,4,2.81,2.81,0,0,0,1.86.69,2.87,2.87,0,0,0,2.18-1l64.34-75C67.18,60,62.81,59.27,62.79,59.27Z"/><path class="cls-24" d="M38.21,86.35A25.78,25.78,0,0,1,41.89,94L28.23,111.38s-2-4.1-4.34-8.57Z"/><path class="cls-27" d="M37.12,97.7a2.83,2.83,0,1,1-2.83-2.83A2.83,2.83,0,0,1,37.12,97.7Z"/><path class="cls-28" d="M266.51,28.28c-1.08-1.37-2.72-.6-6.3,1.82s-46.88,30.45-51.87,34.1c-3.5,2.56-5,3.1-5.58,3.19h-.34A2.59,2.59,0,0,0,201,68a2.26,2.26,0,1,0,3,3.38,2.56,2.56,0,0,0,.88-1.68h0c2.26-3.76,22.45-15.4,27.52-18.62s27.94-17.43,30.57-18.89S267.58,29.65,266.51,28.28Z"/><path class="cls-28" d="M282.93,32.84c-1.08-1.48-2.92-.79-7,1.45s-53,28.12-58.71,31.54c-4,2.39-5.65,2.84-6.29,2.9h-.37a2.91,2.91,0,0,0-1.65.55,2.33,2.33,0,0,0-.61,3.38,2.71,2.71,0,0,0,3.64.29A2.58,2.58,0,0,0,213,71.27h0c2.7-3.7,25.45-14.3,31.19-17.27s31.56-16,34.52-17.35S284,34.32,282.93,32.84Z"/><path class="cls-17" d="M151,254s-15.76,35.33-15.76,35.69,2,1.32,2.5,1.08,19.47-32.12,19.47-32.12Z"/><path class="cls-17" d="M247.34,250.4s17.34,39,17.34,39.31-2,1.32-2.5,1.08-21.49-35.11-21.49-35.11Z"/><path class="cls-29" d="M172,151.88l7.4-1.2s4.6-36.26,2.17-62.61c0,0-31-11.31-63.55-1,0,0-9.48,53.42-6.08,56.9S172,151.88,172,151.88Z"/><path class="cls-30" d="M111.94,143.93c3.4,3.48,60.06,7.95,60.06,7.95l7.4-1.2s.29-2.3.69-6.15h0s-2.52-7.82-33.58-10.22c-17.56-1.36-28.43-.05-35.24,2.38C111.1,140.54,111.27,143.23,111.94,143.93Z"/><path class="cls-30" d="M149.8,78.28C135,77.91,119.72,82.49,118,87a8.5,8.5,0,0,0-.42,2.4c6.44-2.8,16.69-6.46,32.2-6.07,24.26.61,30.56,8.35,32.19,10.57-.06-1.08-.13-4.3-.2-5.35C179.86,86.05,173.16,78.86,149.8,78.28Z"/><path class="cls-31" d="M111.64,142.88c.42-3.44,15.94-4.49,34.65-2.34s33.53,6.7,33.11,10.14-15.94,4.5-34.65,2.35S111.21,146.34,111.64,142.88Z"/><path class="cls-32" d="M111.64,142.88c-.43,3.46,14.39,8,33.11,10.15s34.22,1.1,34.65-2.35c.08-.68-.44-1.4-1.45-2.14a1.52,1.52,0,0,1,.07.59c-.43,3.45-15.41,4.56-33.47,2.48s-32.31-6.54-31.93-10A1.89,1.89,0,0,0,111.64,142.88Z"/><path class="cls-30" d="M169.07,137.79c0-1.6.58-2.87,1.21-2.86s1.14,1.32,1.1,2.9-.58,2.87-1.22,2.85S169,139.37,169.07,137.79Z"/><path class="cls-30" d="M171.19,88.51c0-1.58.58-2.86,1.22-2.85s1.13,1.32,1.1,2.91-.58,2.86-1.23,2.84S171.16,90.1,171.19,88.51Z"/><path class="cls-30" d="M119.74,134.09c.1-1.37.64-2.44,1.19-2.4s.91,1.18.8,2.55-.64,2.44-1.19,2.41S119.63,135.46,119.74,134.09Z"/><path class="cls-30" d="M125.09,86.4c.21-1.28.79-2.25,1.3-2.17s.76,1.17.55,2.44-.78,2.24-1.3,2.17S124.88,87.66,125.09,86.4Z"/><path class="cls-29" d="M214.18,149.75l-7.65-1.22s-4.77-36.84-2.26-63.6c0,0,32.1-11.49,65.75-1.05,0,0,9.8,54.25,6.29,57.79S214.18,149.75,214.18,149.75Z"/><path class="cls-30" d="M276.31,141.67c-3.52,3.53-62.13,8.08-62.13,8.08l-7.65-1.22s-.31-2.33-.72-6.25h0s2.61-7.94,34.73-10.38c18.17-1.38,29.42-.05,36.46,2.41C277.18,138.23,277,141,276.31,141.67Z"/><path class="cls-30" d="M237.15,75c15.3-.38,30.06,3.27,32.87,8.89a8.11,8.11,0,0,1,.43,2.43c-6.66-2.85-17.26-6.56-33.3-6.16-25.1.62-31.62,8.47-33.31,10.73.06-1.1.13-4.36.21-5.43C206,82.88,213,75.58,237.15,75Z"/><path class="cls-31" d="M276.62,140.61c-.44-3.5-16.49-4.57-35.84-2.38s-34.69,6.8-34.25,10.3,16.48,4.57,35.84,2.38S277.06,144.11,276.62,140.61Z"/><path class="cls-33" d="M276.62,140.61c.44,3.5-14.89,8.12-34.25,10.3S207,152,206.53,148.53c-.09-.69.44-1.42,1.49-2.18a1.41,1.41,0,0,0-.07.6c.44,3.5,15.94,4.63,34.62,2.53s33.43-6.65,33-10.15A1.85,1.85,0,0,1,276.62,140.61Z"/><path d="M223.71,152.41c-5.12,0-17.11-.38-17.54-3.83-.1-.81.45-1.66,1.64-2.52l.9-.63-.35,1a1,1,0,0,0-.06.44c.19,1.51,4.69,3.27,16.73,3.27a160.67,160.67,0,0,0,17.51-1.06c20-2.25,33-6.86,32.71-9.75l-.08-.75.63.4a2.24,2.24,0,0,1,1.18,1.55,2,2,0,0,1-.5,1.47c-2.69,3.42-17,7.31-34.07,9.23A168.94,168.94,0,0,1,223.71,152.41Zm-16.1-5.27a1.77,1.77,0,0,0-.73,1.35c.19,1.47,4.71,3.2,16.83,3.2a170,170,0,0,0,18.62-1.13c16.6-1.88,31-5.73,33.59-9a1.28,1.28,0,0,0,.35-.93,1.12,1.12,0,0,0-.39-.67c-1.34,4-17.44,8-33.26,9.84A162.08,162.08,0,0,1,225,150.89C220,150.89,208.36,150.52,207.61,147.14Z"/><path class="cls-30" d="M217.21,135.42c0-1.61-.6-2.9-1.27-2.89s-1.17,1.33-1.13,2.95.6,2.91,1.27,2.89S217.25,137,217.21,135.42Z"/><path class="cls-30" d="M215,85.38c0-1.61-.6-2.91-1.27-2.89s-1.16,1.34-1.13,3,.6,2.91,1.26,2.89S215.06,87,215,85.38Z"/><path class="cls-30" d="M268.24,131.67c-.11-1.39-.66-2.48-1.24-2.44s-.94,1.21-.82,2.6.66,2.48,1.23,2.44S268.35,133.07,268.24,131.67Z"/><path class="cls-30" d="M262.7,83.23c-.21-1.29-.82-2.28-1.34-2.2s-.79,1.19-.57,2.48.81,2.28,1.34,2.2S262.92,84.52,262.7,83.23Z"/><path class="cls-29" d="M310.54,132.56l9.59,2.33s1,3.31.48,22.51c-.1,4-.87,11-1.62,13.2,0,0-5.86,8.72-43.49,8.91,0,0-32.25.41-41.37-12.71,0,0-7.71-24.08-3-28.61S310.54,132.56,310.54,132.56Z"/><path class="cls-30" d="M231.17,138.19c4.76-4.52,79.37-5.63,79.37-5.63l9.59,2.33s.18,3.21.36,8.6h0s-4,10.62-44.88,11.16c-23.13.3-37-2.38-45.71-6.36C229.12,141.57,230.22,139.1,231.17,138.19Z"/><path class="cls-30" d="M320.06,162.49q-.48,4.15-1.07,8.11s-5.86,8.72-43.49,8.91c0,0-31.75,1.08-40.87-12a17.89,17.89,0,0,1-1.54-4.2c8.19,4.47,21.78,8.05,42.13,8.91C307.06,173.53,317.72,165.44,320.06,162.49Z"/><path class="cls-34" d="M230.68,139.61c.26,4.83,20.49,7.67,45.19,6.37s44.51-6.27,44.26-11.09-20.48-7.68-45.18-6.37S230.43,134.79,230.68,139.61Z"/><path class="cls-35" d="M230.68,139.61c-.25-4.82,19.57-9.79,44.27-11.09s44.93,1.54,45.18,6.37c.05,1-.69,1.9-2.08,2.83a2.06,2.06,0,0,0,.15-.8c-.26-4.82-19.8-7.71-43.63-6.46s-42.9,6.19-42.71,11A2.66,2.66,0,0,1,230.68,139.61Z"/><path class="cls-30" d="M238.72,166a.36.36,0,0,1-.33-.23c-1.62-4.11-3-14.37-3.08-14.82a.36.36,0,1,1,.71-.09c0,.1,1.45,10.62,3,14.64a.38.38,0,0,1-.2.48Z"/><path class="cls-30" d="M272.25,171.78a.37.37,0,0,1-.36-.31,109.29,109.29,0,0,1-.66-16.63.35.35,0,0,1,.38-.34.36.36,0,0,1,.34.37,104.67,104.67,0,0,0,.66,16.49.37.37,0,0,1-.31.42Z"/><path class="cls-30" d="M311.87,167a.35.35,0,0,1-.35-.34c-.28-4.9-.36-16.74-.37-16.86a.37.37,0,0,1,.36-.36h0a.36.36,0,0,1,.36.36c0,.12.08,11.93.36,16.83a.35.35,0,0,1-.33.37Z"/><path class="cls-30" d="M310,149.69c-.09,2.21.51,4,1.35,4.07s1.6-1.73,1.69-3.93-.51-4-1.35-4.06S310.08,147.48,310,149.69Z"/><path class="cls-30" d="M310.36,166.54c-.1,2.2.51,4,1.34,4.06s1.6-1.73,1.7-3.93-.52-4-1.36-4.06S310.45,164.33,310.36,166.54Z"/><path class="cls-30" d="M270.07,154.78c-.1,2.21.51,4,1.35,4.07s1.6-1.73,1.69-3.93-.51-4-1.35-4.07S270.17,152.58,270.07,154.78Z"/><path class="cls-30" d="M270.73,171.54c.17,2.2,1,3.93,1.83,3.86s1.38-1.89,1.2-4.1-1-3.93-1.82-3.87S270.56,169.34,270.73,171.54Z"/><path class="cls-30" d="M234.45,151.06c.28,1.76,1.05,3.1,1.72,3s1-1.63.71-3.4-1-3.11-1.72-3S234.16,149.28,234.45,151.06Z"/><path class="cls-30" d="M237.51,165.79c.29,1.77,1.08,3.1,1.75,3s1-1.64.68-3.41-1.08-3.1-1.76-3S237.21,164,237.51,165.79Z"/><path class="cls-29" d="M57.49,143,47.81,145s-5,50.57-1.07,87.1c0,0,4,8.41,41.58,10.2,0,0,32.21,1.79,41.88-10.92,0,0,10.9-74.55,6.34-79.27S57.49,143,57.49,143Z"/><path class="cls-30" d="M136.54,152.06c-4.56-4.72-79-9-79-9L47.81,145s-.32,3.21-.73,8.58h0s3.53,10.79,44.36,13.07c23.09,1.29,37.32-.89,46.19-4.5C137.75,156.74,137.46,153,136.54,152.06Z"/><path class="cls-30" d="M46,223.91c.2,2.77.43,5.49.72,8.14,0,0,4,8.41,41.58,10.2,0,0,32.21,1.79,41.88-10.92,0,0,.17-1.22.47-3.34-8.37,4.11-21.39,7-41.76,7C57,234.94,48.22,226.94,46,223.91Z"/><path class="cls-34" d="M137,153.5c-.46,4.8-20.79,6.79-45.41,4.43s-44.22-8.17-43.75-13,20.79-6.79,45.42-4.42S137.44,148.69,137,153.5Z"/><path class="cls-35" d="M137,153.5c.47-4.81-19.12-10.62-43.74-13s-45-.38-45.42,4.42c-.09,1,.6,1.94,2,2.93a1.92,1.92,0,0,1-.11-.81c.46-4.81,20.1-6.86,43.87-4.58s42.59,8,42.19,12.8A2.62,2.62,0,0,0,137,153.5Z"/><path class="cls-30" d="M57.3,160.18c0,2.21-.67,4-1.51,4s-1.53-1.79-1.53-4,.68-4,1.53-4S57.3,158,57.3,160.18Z"/><path class="cls-30" d="M54.89,227.91c0,2.2-.68,4-1.53,4s-1.51-1.79-1.51-4,.68-4,1.51-4S54.89,225.7,54.89,227.91Z"/><path class="cls-30" d="M97,167c0,2.21-.68,4-1.52,4s-1.52-1.8-1.52-4,.68-4,1.52-4S97,164.77,97,167Z"/><path class="cls-30" d="M91,234.54c0,2.21-.69,4-1.52,4s-1.53-1.78-1.53-4,.68-4,1.53-4S91,232.33,91,234.54Z"/><path class="cls-30" d="M133.4,164.43c0,1.78-.56,3.23-1.23,3.23s-1.24-1.45-1.24-3.23.56-3.25,1.24-3.25S133.4,162.63,133.4,164.43Z"/><path class="cls-30" d="M126.06,229.89c0,1.79-.56,3.23-1.24,3.23s-1.23-1.44-1.23-3.23.55-3.25,1.23-3.25S126.06,228.1,126.06,229.89Z"/><path class="cls-36" d="M216.82,106.45c.48,4.65-.7,8.58-2.63,8.78s-3.88-3.41-4.35-8.06.69-8.57,2.62-8.78S216.34,101.8,216.82,106.45Z"/><path class="cls-36" d="M168.13,106.45c-.48,4.65.7,8.58,2.63,8.78s3.88-3.41,4.36-8.06-.7-8.57-2.63-8.78S168.61,101.8,168.13,106.45Z"/><path class="cls-36" d="M216.46,123.38c.33,3.21-.81,6-2.53,6.14s-3.41-2.28-3.74-5.5.81-6,2.54-6.13S216.13,120.17,216.46,123.38Z"/><path class="cls-36" d="M174.33,123.87c-.17,3.23-1.72,5.76-3.46,5.67s-3-2.78-2.83-6,1.72-5.76,3.46-5.67S174.5,120.65,174.33,123.87Z"/><rect class="cls-18" x="176.67" y="107.49" width="6.9" height="14.42"/><rect class="cls-18" x="201.65" y="107.49" width="6.9" height="14.42"/><rect class="cls-17" x="171.62" y="101.59" width="13.91" height="8.69"/><rect class="cls-17" x="198.86" y="101.59" width="13.91" height="8.69"/><path class="cls-29" d="M255.18,200.41c2.45,30.92-22.5,38.12-59.18,38.12-34.34,0-60.28-11.19-60.28-39.4,0-13.31,16.86-44.07,16.86-44.07,9.67-10.91,24.6-17.43,42.87-17.43,17.07,0,32.83,6,42.05,17.79C239.68,158.22,254.19,187.92,255.18,200.41Z"/><path class="cls-30" d="M257.52,211.28c2.72,34.36-20.77,56.6-61.52,56.6-38.15,0-61.69-24-61.69-55.38,0-33.27,24.54-56.73,61.07-56.73C229.11,155.77,255,179.59,257.52,211.28Z"/><path class="cls-35" d="M257.52,218c2.72,34.34-20.77,56.58-61.52,56.58-38.15,0-61.69-24-61.69-55.37,0-33.27,24.54-56.74,61.07-56.74C229.11,162.49,255,186.32,257.52,218Z"/><path class="cls-31" d="M253,218.06c2.52,31.83-19.25,52.44-57,52.44-35.36,0-57.17-22.29-57.17-51.32,0-30.84,22.74-52.58,56.6-52.58C226.68,166.6,250.69,188.68,253,218.06Z"/><path class="cls-32" d="M187.56,162.87,188,167l9-.34v-4.1a23.74,23.74,0,0,0-4.54-.14A47.66,47.66,0,0,0,187.56,162.87Z"/><path class="cls-32" d="M252.48,198a41.4,41.4,0,0,0-4.09,1.62c.07.16,2.42,6.52,2.42,6.52l4.37-.83S253.87,200.21,252.48,198Z"/><path class="cls-32" d="M235.23,259.79l2.46,3.69s-3.86,2.54-5.93,3.54l-2.14-3.79S234.26,260.5,235.23,259.79Z"/><path class="cls-32" d="M148.26,249.11,144.83,252l5,5.74,3-3.21S149.07,250.24,148.26,249.11Z"/><path class="cls-32" d="M139.91,193.68a18.33,18.33,0,0,1,4,2s-2,4.53-2.57,6.52a11,11,0,0,0-4.06-2.08S138.84,195.19,139.91,193.68Z"/><polygon class="cls-37" points="213.43 120.3 171.49 120.3 171.49 126.39 189 126.39 189 150.85 195.92 150.85 195.92 126.39 213.43 126.39 213.43 120.3"/><path class="cls-18" d="M202.6,156.23s-5.53-.37-9.72-.37a85.11,85.11,0,0,0-10.55,1v-7.43H202.6Z"/><g class="cls-38"><path class="cls-39" d="M48.7,163s14.65,11.48,58.29,9.81c31.25-1.2-55.83,24.33-59,51.13A470,470,0,0,1,48.7,163Z"/></g><g class="cls-40"><path class="cls-41" d="M222.8,129.23l-2.62-40.9s15-13.55,47.52.21C267.7,88.54,224.24,79,222.8,129.23Z"/></g><g class="cls-42"><path class="cls-43" d="M123.21,91.78s27.88-11.38,43,0l-1.76,44.57S159.27,86.1,123.21,91.78Z"/></g><g class="cls-44"><path class="cls-45" d="M150.55,255.08s-24.94-32.56-5.1-63.61c28.17-44.06,89.78-14.7,79.42-16.06,0,0-34.14-4.31-57,34.49C144.81,249.11,170,276.49,150.55,255.08Z"/></g><g class="cls-46"><path class="cls-47" d="M176.8,141.62l-.68,14.57s-15.75,3.42-29.57,18.28A47,47,0,0,1,176.8,141.62Z"/></g><g class="cls-48"><path class="cls-49" d="M209.09,141.3l.71,14.47s18.38.26,32.68,17.57C242.48,173.34,240,145.69,209.09,141.3Z"/></g></g></g></svg>