<svg xmlns="http://www.w3.org/2000/svg" xmlns:xlink="http://www.w3.org/1999/xlink" viewBox="0 0 207.38 228.85"><defs><style>.cls-1{mask:url(#mask);filter:url(#luminosity-noclip-14);}.cls-10,.cls-12,.cls-14,.cls-16,.cls-18,.cls-2,.cls-20,.cls-22,.cls-24,.cls-26,.cls-4,.cls-6,.cls-8{mix-blend-mode:multiply;}.cls-2{fill:url(#radial-gradient);}.cls-3{mask:url(#mask-2);filter:url(#luminosity-noclip-19);}.cls-4{fill:url(#radial-gradient-2);}.cls-5{mask:url(#mask-3);filter:url(#luminosity-noclip-20);}.cls-6{fill:url(#radial-gradient-3);}.cls-7{mask:url(#mask-4);filter:url(#luminosity-noclip-21);}.cls-8{fill:url(#radial-gradient-4);}.cls-9{mask:url(#mask-5);filter:url(#luminosity-noclip-22);}.cls-10{fill:url(#radial-gradient-5);}.cls-11{mask:url(#mask-6);filter:url(#luminosity-noclip-23);}.cls-12{fill:url(#radial-gradient-6);}.cls-13{mask:url(#mask-7);filter:url(#luminosity-noclip-15);}.cls-14{fill:url(#radial-gradient-7);}.cls-15,.cls-17{mask:url(#mask-8);}.cls-15{filter:url(#luminosity-noclip-24);}.cls-16{fill:url(#radial-gradient-8);}.cls-17{filter:url(#luminosity-noclip-25);}.cls-18{fill:url(#radial-gradient-9);}.cls-19{mask:url(#mask-10);filter:url(#luminosity-noclip-26);}.cls-20{fill:url(#radial-gradient-10);}.cls-21{mask:url(#mask-11);filter:url(#luminosity-noclip-16);}.cls-22{fill:url(#radial-gradient-11);}.cls-23{mask:url(#mask-12);filter:url(#luminosity-noclip-17);}.cls-24{fill:url(#radial-gradient-12);}.cls-25{mask:url(#mask-13);filter:url(#luminosity-noclip-18);}.cls-26{fill:url(#radial-gradient-13);}.cls-27{isolation:isolate;}.cls-28{fill:#c66a26;}.cls-29{mask:url(#mask-14);}.cls-30{fill:url(#radial-gradient-14);}.cls-31{mask:url(#mask-15);}.cls-32{fill:url(#radial-gradient-15);}.cls-33{mask:url(#mask-16);}.cls-34{fill:url(#radial-gradient-16);}.cls-35{mask:url(#mask-17);}.cls-36{fill:url(#radial-gradient-17);}.cls-37{fill:#c10000;}.cls-38{fill:#fecb27;}.cls-39{fill:#056bb1;}.cls-40{fill:#3b9b45;}.cls-41{fill:#e4c2a3;}.cls-42{fill:#9e4c15;}.cls-43{fill:#953410;}.cls-44{mask:url(#mask-18);}.cls-45,.cls-47,.cls-49,.cls-51,.cls-53,.cls-55{mix-blend-mode:screen;}.cls-45{fill:url(#radial-gradient-18);}.cls-46{mask:url(#mask-19);}.cls-47{fill:url(#radial-gradient-19);}.cls-48{mask:url(#mask-20);}.cls-49{fill:url(#radial-gradient-20);}.cls-50{mask:url(#mask-21);}.cls-51{fill:url(#radial-gradient-21);}.cls-52{mask:url(#mask-22);}.cls-53{fill:url(#radial-gradient-22);}.cls-54{mask:url(#mask-23);}.cls-55{fill:url(#radial-gradient-23);}.cls-56{mask:url(#mask-24);}.cls-57{fill:url(#radial-gradient-24);}.cls-58{mask:url(#mask-25);}.cls-59{fill:url(#radial-gradient-25);}.cls-60{mask:url(#mask-26);}.cls-61{fill:url(#radial-gradient-26);}.cls-62{filter:url(#luminosity-noclip-13);}.cls-63{filter:url(#luminosity-noclip-12);}.cls-64{filter:url(#luminosity-noclip-11);}.cls-65{filter:url(#luminosity-noclip-10);}.cls-66{filter:url(#luminosity-noclip-8);}.cls-67{filter:url(#luminosity-noclip-7);}.cls-68{filter:url(#luminosity-noclip-6);}.cls-69{filter:url(#luminosity-noclip-5);}.cls-70{filter:url(#luminosity-noclip-4);}.cls-71{filter:url(#luminosity-noclip-3);}.cls-72{filter:url(#luminosity-noclip-2);}.cls-73{filter:url(#luminosity-noclip);}</style><filter id="luminosity-noclip" x="61.65" y="-8437.43" width="7.56" height="32766" filterUnits="userSpaceOnUse" color-interpolation-filters="sRGB"><feFlood flood-color="#fff" result="bg"/><feBlend in="SourceGraphic" in2="bg"/></filter><mask id="mask" x="61.65" y="-8437.43" width="7.56" height="32766" maskUnits="userSpaceOnUse"><g class="cls-73"/></mask><radialGradient id="radial-gradient" cx="61.6" cy="77.07" r="8.1" gradientUnits="userSpaceOnUse"><stop offset="0" stop-color="#fff"/><stop offset="0.19" stop-color="#c6c6c6"/><stop offset="0.57" stop-color="#5c5c5c"/><stop offset="0.82" stop-color="#1a1a1a"/><stop offset="0.94"/></radialGradient><filter id="luminosity-noclip-2" x="20.28" y="-8437.43" width="2.82" height="32766" filterUnits="userSpaceOnUse" color-interpolation-filters="sRGB"><feFlood flood-color="#fff" result="bg"/><feBlend in="SourceGraphic" in2="bg"/></filter><mask id="mask-2" x="20.28" y="-8437.43" width="2.82" height="32766" maskUnits="userSpaceOnUse"><g class="cls-72"/></mask><radialGradient id="radial-gradient-2" cx="24.51" cy="216.69" r="5.44" gradientUnits="userSpaceOnUse"><stop offset="0"/><stop offset="0.26" stop-color="#020202"/><stop offset="0.4" stop-color="#0a0a0a"/><stop offset="0.51" stop-color="#181818"/><stop offset="0.6" stop-color="#2b2b2b"/><stop offset="0.68" stop-color="#444"/><stop offset="0.76" stop-color="#626262"/><stop offset="0.83" stop-color="#878787"/><stop offset="0.9" stop-color="#b1b1b1"/><stop offset="0.96" stop-color="#dfdfdf"/><stop offset="1" stop-color="#fff"/></radialGradient><filter id="luminosity-noclip-3" x="67.35" y="-8437.43" width="2.82" height="32766" filterUnits="userSpaceOnUse" color-interpolation-filters="sRGB"><feFlood flood-color="#fff" result="bg"/><feBlend in="SourceGraphic" in2="bg"/></filter><mask id="mask-3" x="67.35" y="-8437.43" width="2.82" height="32766" maskUnits="userSpaceOnUse"><g class="cls-71"/></mask><radialGradient id="radial-gradient-3" cx="71.58" cy="222.78" r="5.44" xlink:href="#radial-gradient-2"/><filter id="luminosity-noclip-4" x="115.51" y="-8437.43" width="2.82" height="32766" filterUnits="userSpaceOnUse" color-interpolation-filters="sRGB"><feFlood flood-color="#fff" result="bg"/><feBlend in="SourceGraphic" in2="bg"/></filter><mask id="mask-4" x="115.51" y="-8437.43" width="2.82" height="32766" maskUnits="userSpaceOnUse"><g class="cls-70"/></mask><radialGradient id="radial-gradient-4" cx="119.74" cy="219.09" r="5.44" xlink:href="#radial-gradient-2"/><filter id="luminosity-noclip-5" x="72.16" y="-8437.43" width="2.82" height="32766" filterUnits="userSpaceOnUse" color-interpolation-filters="sRGB"><feFlood flood-color="#fff" result="bg"/><feBlend in="SourceGraphic" in2="bg"/></filter><mask id="mask-5" x="72.16" y="-8437.43" width="2.82" height="32766" maskUnits="userSpaceOnUse"><g class="cls-69"/></mask><radialGradient id="radial-gradient-5" cx="76.39" cy="138.75" r="5.44" xlink:href="#radial-gradient-2"/><filter id="luminosity-noclip-6" x="115.15" y="-8437.43" width="2.81" height="32766" filterUnits="userSpaceOnUse" color-interpolation-filters="sRGB"><feFlood flood-color="#fff" result="bg"/><feBlend in="SourceGraphic" in2="bg"/></filter><mask id="mask-6" x="115.15" y="-8437.43" width="2.81" height="32766" maskUnits="userSpaceOnUse"><g class="cls-68"/></mask><radialGradient id="radial-gradient-6" cx="119.37" cy="135.89" r="5.44" xlink:href="#radial-gradient-2"/><filter id="luminosity-noclip-7" x="70.51" y="-8437.43" width="101.58" height="32766" filterUnits="userSpaceOnUse" color-interpolation-filters="sRGB"><feFlood flood-color="#fff" result="bg"/><feBlend in="SourceGraphic" in2="bg"/></filter><mask id="mask-7" x="70.51" y="-8437.43" width="101.58" height="32766" maskUnits="userSpaceOnUse"><g class="cls-67"/></mask><radialGradient id="radial-gradient-7" cx="99.45" cy="11.89" r="77.35" xlink:href="#radial-gradient"/><filter id="luminosity-noclip-8" x="2.19" y="-8437.43" width="104.85" height="32766" filterUnits="userSpaceOnUse" color-interpolation-filters="sRGB"><feFlood flood-color="#fff" result="bg"/><feBlend in="SourceGraphic" in2="bg"/></filter><mask id="mask-8" x="2.19" y="-8437.43" width="104.85" height="32766" maskUnits="userSpaceOnUse"><g class="cls-66"/></mask><radialGradient id="radial-gradient-8" cx="31.89" cy="180.31" r="84.93" xlink:href="#radial-gradient"/><radialGradient id="radial-gradient-9" cx="31.89" cy="263.37" r="84.93" xlink:href="#radial-gradient"/><filter id="luminosity-noclip-10" x="1.71" y="-8437.43" width="98.82" height="32766" filterUnits="userSpaceOnUse" color-interpolation-filters="sRGB"><feFlood flood-color="#fff" result="bg"/><feBlend in="SourceGraphic" in2="bg"/></filter><mask id="mask-10" x="1.71" y="-8437.43" width="98.82" height="32766" maskUnits="userSpaceOnUse"><g class="cls-65"/></mask><radialGradient id="radial-gradient-10" cx="0.05" cy="235.12" r="91.35" gradientUnits="userSpaceOnUse"><stop offset="0" stop-color="#fff"/><stop offset="0.17" stop-color="#fcfcfc"/><stop offset="0.3" stop-color="#f2f2f2"/><stop offset="0.42" stop-color="#e1e1e1"/><stop offset="0.53" stop-color="#c9c9c9"/><stop offset="0.63" stop-color="#ababab"/><stop offset="0.74" stop-color="#858585"/><stop offset="0.84" stop-color="#595959"/><stop offset="0.93" stop-color="#272727"/><stop offset="1"/></radialGradient><filter id="luminosity-noclip-11" x="74.84" y="-8437.43" width="7.56" height="32766" filterUnits="userSpaceOnUse" color-interpolation-filters="sRGB"><feFlood flood-color="#fff" result="bg"/><feBlend in="SourceGraphic" in2="bg"/></filter><mask id="mask-11" x="74.84" y="-8437.43" width="7.56" height="32766" maskUnits="userSpaceOnUse"><g class="cls-64"/></mask><radialGradient id="radial-gradient-11" cx="74.78" cy="90.81" r="8.09" xlink:href="#radial-gradient"/><filter id="luminosity-noclip-12" x="85.13" y="-8437.43" width="118.47" height="32766" filterUnits="userSpaceOnUse" color-interpolation-filters="sRGB"><feFlood flood-color="#fff" result="bg"/><feBlend in="SourceGraphic" in2="bg"/></filter><mask id="mask-12" x="85.13" y="-8437.43" width="118.47" height="32766" maskUnits="userSpaceOnUse"><g class="cls-63"/></mask><radialGradient id="radial-gradient-12" cx="62.34" cy="-7.96" r="77.35" gradientTransform="translate(69.1 28.17) rotate(16.74)" xlink:href="#radial-gradient"/><filter id="luminosity-noclip-13" x="25.2" y="-8437.43" width="2.81" height="32766" filterUnits="userSpaceOnUse" color-interpolation-filters="sRGB"><feFlood flood-color="#fff" result="bg"/><feBlend in="SourceGraphic" in2="bg"/></filter><mask id="mask-13" x="25.2" y="-8437.43" width="2.81" height="32766" maskUnits="userSpaceOnUse"><g class="cls-62"/></mask><radialGradient id="radial-gradient-13" cx="29.42" cy="135.84" r="5.43" xlink:href="#radial-gradient-2"/><filter id="luminosity-noclip-14" x="61.65" y="76.51" width="7.56" height="7.56" filterUnits="userSpaceOnUse" color-interpolation-filters="sRGB"><feFlood flood-color="#fff" result="bg"/><feBlend in="SourceGraphic" in2="bg"/></filter><mask id="mask-14" x="61.65" y="76.51" width="7.56" height="7.56" maskUnits="userSpaceOnUse"><g class="cls-1"><path class="cls-2" d="M69.21,80.29a3.78,3.78,0,1,1-3.78-3.78A3.77,3.77,0,0,1,69.21,80.29Z"/></g></mask><radialGradient id="radial-gradient-14" cx="61.6" cy="77.07" r="8.1" gradientUnits="userSpaceOnUse"><stop offset="0" stop-color="#fff"/><stop offset="0.94" stop-color="#fff"/></radialGradient><filter id="luminosity-noclip-15" x="70.51" y="1.01" width="101.58" height="74.5" filterUnits="userSpaceOnUse" color-interpolation-filters="sRGB"><feFlood flood-color="#fff" result="bg"/><feBlend in="SourceGraphic" in2="bg"/></filter><mask id="mask-15" x="70.51" y="1.01" width="101.58" height="74.5" maskUnits="userSpaceOnUse"><g class="cls-13"><path class="cls-14" d="M70.58,74.81s93-70.25,98.06-73c4.78-2.61,6.77,1.08-8.89,10.78C148.91,19.34,67.75,82.86,70.58,74.81Z"/></g></mask><radialGradient id="radial-gradient-15" cx="99.45" cy="11.89" r="77.35" xlink:href="#radial-gradient-14"/><filter id="luminosity-noclip-16" x="74.84" y="90.26" width="7.56" height="7.55" filterUnits="userSpaceOnUse" color-interpolation-filters="sRGB"><feFlood flood-color="#fff" result="bg"/><feBlend in="SourceGraphic" in2="bg"/></filter><mask id="mask-16" x="74.84" y="90.26" width="7.56" height="7.55" maskUnits="userSpaceOnUse"><g class="cls-21"><path class="cls-22" d="M82.4,94a3.78,3.78,0,1,1-3.78-3.78A3.77,3.77,0,0,1,82.4,94Z"/></g></mask><radialGradient id="radial-gradient-16" cx="74.78" cy="90.81" r="8.09" xlink:href="#radial-gradient-14"/><filter id="luminosity-noclip-17" x="85.13" y="48.6" width="118.47" height="42.69" filterUnits="userSpaceOnUse" color-interpolation-filters="sRGB"><feFlood flood-color="#fff" result="bg"/><feBlend in="SourceGraphic" in2="bg"/></filter><mask id="mask-17" x="85.13" y="48.6" width="118.47" height="42.69" maskUnits="userSpaceOnUse"><g class="cls-23"><path class="cls-24" d="M85.32,90.44S194.65,50,200.23,48.78c5.34-1.11,6.18,3-11.61,7.78C176.3,59.88,80.29,97.33,85.32,90.44Z"/></g></mask><radialGradient id="radial-gradient-17" cx="62.34" cy="-7.96" r="77.35" gradientTransform="translate(69.1 28.17) rotate(16.74)" xlink:href="#radial-gradient-14"/><filter id="luminosity-noclip-18" x="25.2" y="132.2" width="2.81" height="2.81" filterUnits="userSpaceOnUse" color-interpolation-filters="sRGB"><feFlood flood-color="#fff" result="bg"/><feBlend in="SourceGraphic" in2="bg"/></filter><mask id="mask-18" x="25.2" y="132.2" width="2.81" height="2.81" maskUnits="userSpaceOnUse"><g class="cls-25"><path class="cls-26" d="M28,133.61a1.41,1.41,0,1,1-1.41-1.41A1.4,1.4,0,0,1,28,133.61Z"/></g></mask><radialGradient id="radial-gradient-18" cx="29.42" cy="135.84" r="5.43" gradientUnits="userSpaceOnUse"><stop offset="0" stop-color="#fff"/><stop offset="0.85" stop-color="#fff"/><stop offset="1" stop-color="#fff"/></radialGradient><filter id="luminosity-noclip-19" x="20.28" y="213.05" width="2.82" height="2.81" filterUnits="userSpaceOnUse" color-interpolation-filters="sRGB"><feFlood flood-color="#fff" result="bg"/><feBlend in="SourceGraphic" in2="bg"/></filter><mask id="mask-19" x="20.28" y="213.05" width="2.82" height="2.81" maskUnits="userSpaceOnUse"><g class="cls-3"><path class="cls-4" d="M23.1,214.45a1.41,1.41,0,1,1-1.41-1.4A1.41,1.41,0,0,1,23.1,214.45Z"/></g></mask><radialGradient id="radial-gradient-19" cx="24.51" cy="216.69" r="5.44" xlink:href="#radial-gradient-18"/><filter id="luminosity-noclip-20" x="67.35" y="219.14" width="2.82" height="2.81" filterUnits="userSpaceOnUse" color-interpolation-filters="sRGB"><feFlood flood-color="#fff" result="bg"/><feBlend in="SourceGraphic" in2="bg"/></filter><mask id="mask-20" x="67.35" y="219.14" width="2.82" height="2.81" maskUnits="userSpaceOnUse"><g class="cls-5"><path class="cls-6" d="M70.17,220.55a1.41,1.41,0,1,1-1.41-1.41A1.41,1.41,0,0,1,70.17,220.55Z"/></g></mask><radialGradient id="radial-gradient-20" cx="71.58" cy="222.78" r="5.44" xlink:href="#radial-gradient-18"/><filter id="luminosity-noclip-21" x="115.51" y="215.44" width="2.82" height="2.82" filterUnits="userSpaceOnUse" color-interpolation-filters="sRGB"><feFlood flood-color="#fff" result="bg"/><feBlend in="SourceGraphic" in2="bg"/></filter><mask id="mask-21" x="115.51" y="215.44" width="2.82" height="2.82" maskUnits="userSpaceOnUse"><g class="cls-7"><path class="cls-8" d="M118.33,216.85a1.41,1.41,0,1,1-1.41-1.41A1.41,1.41,0,0,1,118.33,216.85Z"/></g></mask><radialGradient id="radial-gradient-21" cx="119.74" cy="219.09" r="5.44" xlink:href="#radial-gradient-18"/><filter id="luminosity-noclip-22" x="72.16" y="135.1" width="2.82" height="2.82" filterUnits="userSpaceOnUse" color-interpolation-filters="sRGB"><feFlood flood-color="#fff" result="bg"/><feBlend in="SourceGraphic" in2="bg"/></filter><mask id="mask-22" x="72.16" y="135.1" width="2.82" height="2.82" maskUnits="userSpaceOnUse"><g class="cls-9"><path class="cls-10" d="M75,136.51a1.41,1.41,0,1,1-1.41-1.41A1.41,1.41,0,0,1,75,136.51Z"/></g></mask><radialGradient id="radial-gradient-22" cx="76.39" cy="138.75" r="5.44" xlink:href="#radial-gradient-18"/><filter id="luminosity-noclip-23" x="115.15" y="132.24" width="2.81" height="2.82" filterUnits="userSpaceOnUse" color-interpolation-filters="sRGB"><feFlood flood-color="#fff" result="bg"/><feBlend in="SourceGraphic" in2="bg"/></filter><mask id="mask-23" x="115.15" y="132.24" width="2.81" height="2.82" maskUnits="userSpaceOnUse"><g class="cls-11"><path class="cls-12" d="M118,133.65a1.41,1.41,0,1,1-1.4-1.41A1.41,1.41,0,0,1,118,133.65Z"/></g></mask><radialGradient id="radial-gradient-23" cx="119.37" cy="135.89" r="5.44" xlink:href="#radial-gradient-18"/><filter id="luminosity-noclip-24" x="2.19" y="122.11" width="104.85" height="21.61" filterUnits="userSpaceOnUse" color-interpolation-filters="sRGB"><feFlood flood-color="#fff" result="bg"/><feBlend in="SourceGraphic" in2="bg"/></filter><mask id="mask-24" x="2.19" y="122.11" width="104.85" height="21.61" maskUnits="userSpaceOnUse"><g class="cls-15"><path class="cls-16" d="M2.33,122.11S38.67,145.82,107,140.28c-20,4.62-81.62,6.77-104.71-8A78.07,78.07,0,0,1,2.33,122.11Z"/></g></mask><radialGradient id="radial-gradient-24" cx="31.89" cy="180.31" r="84.93" xlink:href="#radial-gradient-14"/><filter id="luminosity-noclip-25" x="2.19" y="205.16" width="104.85" height="21.62" filterUnits="userSpaceOnUse" color-interpolation-filters="sRGB"><feFlood flood-color="#fff" result="bg"/><feBlend in="SourceGraphic" in2="bg"/></filter><mask id="mask-25" x="2.19" y="205.16" width="104.85" height="21.62" maskUnits="userSpaceOnUse"><g class="cls-17"><path class="cls-18" d="M2.33,205.16S38.67,228.88,107,223.33c-20,4.62-81.62,6.78-104.71-8A78.29,78.29,0,0,1,2.33,205.16Z"/></g></mask><radialGradient id="radial-gradient-25" cx="31.89" cy="263.37" r="84.93" xlink:href="#radial-gradient-14"/><filter id="luminosity-noclip-26" x="1.71" y="137.56" width="98.82" height="71.83" filterUnits="userSpaceOnUse" color-interpolation-filters="sRGB"><feFlood flood-color="#fff" result="bg"/><feBlend in="SourceGraphic" in2="bg"/></filter><mask id="mask-26" x="1.71" y="137.56" width="98.82" height="71.83" maskUnits="userSpaceOnUse"><g class="cls-19"><path class="cls-20" d="M4.56,138.09s29.18,56.43,96,66.8C58.68,213,6.86,211.79,3.79,188S1.11,133.1,4.56,138.09Z"/></g></mask><radialGradient id="radial-gradient-26" cx="0.05" cy="235.12" r="91.35" gradientUnits="userSpaceOnUse"><stop offset="0" stop-color="#fff"/><stop offset="0.91" stop-color="#fff"/><stop offset="1" stop-color="#fff"/></radialGradient></defs><title>caixa</title><g class="cls-27"><g id="Camada_2" data-name="Camada 2"><g id="Layer_1" data-name="Layer 1"><path class="cls-28" d="M175.85,2.69A6,6,0,0,0,167.57,1L67.33,76.11a4.94,4.94,0,1,0,3.57,4.74c0-.14,0-.28,0-.42L174.16,11A6,6,0,0,0,175.85,2.69Z"/><g class="cls-29"><path class="cls-30" d="M69.21,80.29a3.78,3.78,0,1,1-3.78-3.78A3.77,3.77,0,0,1,69.21,80.29Z"/></g><g class="cls-31"><path class="cls-32" d="M70.58,74.81s93-70.25,98.06-73c4.78-2.61,6.77,1.08-8.89,10.78C148.91,19.34,67.75,82.86,70.58,74.81Z"/></g><path class="cls-28" d="M207.14,51.77a6,6,0,0,0-7.44-4L81.92,90.34a4.86,4.86,0,0,0-1.26-.59A4.95,4.95,0,1,0,84,95.93c0-.14.07-.28.1-.42L203.1,59.19A6,6,0,0,0,207.14,51.77Z"/><g class="cls-33"><path class="cls-34" d="M82.4,94a3.78,3.78,0,1,1-3.78-3.78A3.77,3.77,0,0,1,82.4,94Z"/></g><g class="cls-35"><path class="cls-36" d="M85.32,90.44S194.65,50,200.23,48.78c5.34-1.11,6.18,3-11.61,7.78C176.3,59.88,80.29,97.33,85.32,90.44Z"/></g><path class="cls-37" d="M0,199.05v15.16c0,8.08,30.73,14.64,68.63,14.64s68.62-6.56,68.62-14.64V199.05Z"/><path class="cls-38" d="M50.35,210.61c5.82.34,11.95.53,18.28.53,8.11,0,15.89-.31,23.11-.86l-20-65.18Z"/><path class="cls-38" d="M5.6,198.82v3.48c7.57,3.73,22.24,6.67,40.4,8l-19.75-68Z"/><path class="cls-38" d="M131.7,201l-16.52-59.15L94.9,210c16.5-1.46,29.76-4.25,36.8-7.75Z"/><path class="cls-39" d="M131.7,201V130.31H5.6v68.51l20.65-56.55,19.75,68,4.35.29L71.7,145.1l20,65.18L94.9,210l20.28-68.18Z"/><polygon class="cls-40" points="50.89 210.62 47.02 210.29 47.02 144.32 50.89 144.56 50.89 210.62"/><polygon class="cls-40" points="90.95 210.62 94.81 210.29 94.81 144.32 90.95 144.56 90.95 210.62"/><path class="cls-40" d="M0,130.31v66.18c0,2.06,2,4,5.6,5.81v-72Z"/><path class="cls-40" d="M131.7,130.31v72c3.57-1.77,5.55-3.73,5.55-5.78V130.31Z"/><path class="cls-37" d="M0,115.4v15.17c0,8.08,30.73,14.64,68.63,14.64s68.62-6.56,68.62-14.64V115.4Z"/><path class="cls-41" d="M137.25,115.4c0,8.09-30.72,14.64-68.62,14.64S0,123.49,0,115.4s30.73-14.64,68.63-14.64S137.25,107.32,137.25,115.4Z"/><path class="cls-28" d="M128.92,117.73c1.54-.94,2.39-1.93,2.39-3,0-6-28.07-10.82-62.68-10.82S6,108.79,6,114.77c0,1,.85,2,2.39,3,7.45-4.54,31.62-7.87,60.29-7.87S121.47,113.19,128.92,117.73Z"/><path class="cls-42" d="M128.92,117.73c-7.45-4.54-31.61-7.87-60.29-7.87s-52.84,3.33-60.29,7.87c7.45,4.54,31.62,7.87,60.29,7.87S121.47,122.27,128.92,117.73Z"/><path class="cls-43" d="M28.45,133.61a1.85,1.85,0,1,1-1.85-1.85A1.85,1.85,0,0,1,28.45,133.61Z"/><g class="cls-44"><path class="cls-45" d="M28,133.61a1.41,1.41,0,1,1-1.41-1.41A1.4,1.4,0,0,1,28,133.61Z"/></g><path class="cls-43" d="M23.54,214.45a1.85,1.85,0,1,1-1.85-1.84A1.85,1.85,0,0,1,23.54,214.45Z"/><g class="cls-46"><path class="cls-47" d="M23.1,214.45a1.41,1.41,0,1,1-1.41-1.4A1.41,1.41,0,0,1,23.1,214.45Z"/></g><path class="cls-43" d="M70.61,220.55a1.85,1.85,0,1,1-1.85-1.85A1.84,1.84,0,0,1,70.61,220.55Z"/><g class="cls-48"><path class="cls-49" d="M70.17,220.55a1.41,1.41,0,1,1-1.41-1.41A1.41,1.41,0,0,1,70.17,220.55Z"/></g><path class="cls-43" d="M118.77,216.85a1.85,1.85,0,1,1-1.85-1.85A1.85,1.85,0,0,1,118.77,216.85Z"/><g class="cls-50"><path class="cls-51" d="M118.33,216.85a1.41,1.41,0,1,1-1.41-1.41A1.41,1.41,0,0,1,118.33,216.85Z"/></g><path class="cls-43" d="M75.42,136.51a1.85,1.85,0,1,1-1.85-1.86A1.85,1.85,0,0,1,75.42,136.51Z"/><g class="cls-52"><path class="cls-53" d="M75,136.51a1.41,1.41,0,1,1-1.41-1.41A1.41,1.41,0,0,1,75,136.51Z"/></g><path class="cls-43" d="M118.41,133.65a1.85,1.85,0,1,1-1.85-1.85A1.84,1.84,0,0,1,118.41,133.65Z"/><g class="cls-54"><path class="cls-55" d="M118,133.65a1.41,1.41,0,1,1-1.4-1.41A1.41,1.41,0,0,1,118,133.65Z"/></g><g class="cls-56"><path class="cls-57" d="M2.33,122.11S38.67,145.82,107,140.28c-20,4.62-81.62,6.77-104.71-8A78.07,78.07,0,0,1,2.33,122.11Z"/></g><g class="cls-58"><path class="cls-59" d="M2.33,205.16S38.67,228.88,107,223.33c-20,4.62-81.62,6.78-104.71-8A78.29,78.29,0,0,1,2.33,205.16Z"/></g><g class="cls-60"><path class="cls-61" d="M4.56,138.09s29.18,56.43,96,66.8C58.68,213,6.86,211.79,3.79,188S1.11,133.1,4.56,138.09Z"/></g></g></g></g></svg>