<svg xmlns="http://www.w3.org/2000/svg" xmlns:xlink="http://www.w3.org/1999/xlink" viewBox="0 0 201.9 194.06"><defs><style>.cls-1{mask:url(#mask);filter:url(#luminosity-noclip-6);}.cls-10,.cls-2,.cls-4,.cls-6,.cls-8{mix-blend-mode:multiply;}.cls-2{fill:url(#radial-gradient);}.cls-3{mask:url(#mask-2);filter:url(#luminosity-noclip-7);}.cls-4{fill:url(#radial-gradient-2);}.cls-5{mask:url(#mask-3);filter:url(#luminosity-noclip-8);}.cls-6{fill:url(#radial-gradient-3);}.cls-7{mask:url(#mask-4);filter:url(#luminosity-noclip-9);}.cls-8{fill:url(#radial-gradient-4);}.cls-9{mask:url(#mask-5);filter:url(#luminosity-noclip-10);}.cls-10{fill:url(#radial-gradient-5);}.cls-11{fill:#f2ad00;}.cls-12{fill:#f9b800;}.cls-13{fill:#ffc81a;}.cls-14{fill:#d68900;}.cls-15{mask:url(#mask-6);}.cls-16{fill:url(#radial-gradient-6);}.cls-17{mask:url(#mask-7);}.cls-18{fill:url(#radial-gradient-7);}.cls-19{mask:url(#mask-8);}.cls-20{fill:url(#radial-gradient-8);}.cls-21{mask:url(#mask-9);}.cls-22{fill:url(#radial-gradient-9);}.cls-23{mask:url(#mask-10);}.cls-24{fill:url(#radial-gradient-10);}.cls-25{filter:url(#luminosity-noclip-5);}.cls-26{filter:url(#luminosity-noclip-4);}.cls-27{filter:url(#luminosity-noclip-3);}.cls-28{filter:url(#luminosity-noclip-2);}.cls-29{filter:url(#luminosity-noclip);}</style><filter id="luminosity-noclip" x="28.31" y="-8345.64" width="97.96" height="32766" filterUnits="userSpaceOnUse" color-interpolation-filters="sRGB"><feFlood flood-color="#fff" result="bg"/><feBlend in="SourceGraphic" in2="bg"/></filter><mask id="mask" x="28.31" y="-8345.64" width="97.96" height="32766" maskUnits="userSpaceOnUse"><g class="cls-29"/></mask><radialGradient id="radial-gradient" cx="69.47" cy="39.57" r="60.21" gradientTransform="matrix(0.99, 0.15, -0.15, 0.99, 24.79, -25.98)" gradientUnits="userSpaceOnUse"><stop offset="0.11" stop-color="#fff"/><stop offset="0.34" stop-color="#b2b2b2"/><stop offset="0.57" stop-color="#666"/><stop offset="0.77" stop-color="#2f2f2f"/><stop offset="0.92" stop-color="#0d0d0d"/><stop offset="1"/></radialGradient><filter id="luminosity-noclip-2" x="16.94" y="-8345.64" width="63.83" height="32766" filterUnits="userSpaceOnUse" color-interpolation-filters="sRGB"><feFlood flood-color="#fff" result="bg"/><feBlend in="SourceGraphic" in2="bg"/></filter><mask id="mask-2" x="16.94" y="-8345.64" width="63.83" height="32766" maskUnits="userSpaceOnUse"><g class="cls-28"/></mask><radialGradient id="radial-gradient-2" cx="41.3" cy="146.54" r="34.69" xlink:href="#radial-gradient"/><filter id="luminosity-noclip-3" x="9.06" y="-8345.64" width="45.42" height="32766" filterUnits="userSpaceOnUse" color-interpolation-filters="sRGB"><feFlood flood-color="#fff" result="bg"/><feBlend in="SourceGraphic" in2="bg"/></filter><mask id="mask-3" x="9.06" y="-8345.64" width="45.42" height="32766" maskUnits="userSpaceOnUse"><g class="cls-27"/></mask><radialGradient id="radial-gradient-3" cx="-5.76" cy="71.87" r="48.78" xlink:href="#radial-gradient"/><filter id="luminosity-noclip-4" x="48.75" y="-8345.64" width="145.39" height="32766" filterUnits="userSpaceOnUse" color-interpolation-filters="sRGB"><feFlood flood-color="#fff" result="bg"/><feBlend in="SourceGraphic" in2="bg"/></filter><mask id="mask-4" x="48.75" y="-8345.64" width="145.39" height="32766" maskUnits="userSpaceOnUse"><g class="cls-26"/></mask><radialGradient id="radial-gradient-4" cx="114.87" cy="119.43" r="100.7" xlink:href="#radial-gradient"/><filter id="luminosity-noclip-5" x="93.62" y="-8345.64" width="31.91" height="32766" filterUnits="userSpaceOnUse" color-interpolation-filters="sRGB"><feFlood flood-color="#fff" result="bg"/><feBlend in="SourceGraphic" in2="bg"/></filter><mask id="mask-5" x="93.62" y="-8345.64" width="31.91" height="32766" maskUnits="userSpaceOnUse"><g class="cls-25"/></mask><radialGradient id="radial-gradient-5" cx="101.04" cy="125.12" r="28.77" xlink:href="#radial-gradient"/><filter id="luminosity-noclip-6" x="28.31" y="38.56" width="97.96" height="29.68" filterUnits="userSpaceOnUse" color-interpolation-filters="sRGB"><feFlood flood-color="#fff" result="bg"/><feBlend in="SourceGraphic" in2="bg"/></filter><mask id="mask-6" x="28.31" y="38.56" width="97.96" height="29.68" maskUnits="userSpaceOnUse"><g class="cls-1"><path class="cls-2" d="M28.31,51.93s20.2-17.87,54.76-12.3,43.2,28.61,43.2,28.61S111.86,49,79.74,43.92,28.31,51.93,28.31,51.93Z"/></g></mask><radialGradient id="radial-gradient-6" cx="69.47" cy="39.57" r="60.21" gradientTransform="matrix(0.99, 0.15, -0.15, 0.99, 24.79, -25.98)" gradientUnits="userSpaceOnUse"><stop offset="0.11" stop-color="#fff"/><stop offset="1" stop-color="#fff"/></radialGradient><filter id="luminosity-noclip-7" x="16.94" y="114.96" width="63.83" height="29.93" filterUnits="userSpaceOnUse" color-interpolation-filters="sRGB"><feFlood flood-color="#fff" result="bg"/><feBlend in="SourceGraphic" in2="bg"/></filter><mask id="mask-7" x="16.94" y="114.96" width="63.83" height="29.93" maskUnits="userSpaceOnUse"><g class="cls-3"><path class="cls-4" d="M16.94,115S35.5,150.43,80.77,139.1c0,0-17.4,12.33-41.88,1C17.38,130.15,16.94,115,16.94,115Z"/></g></mask><radialGradient id="radial-gradient-7" cx="41.3" cy="146.54" r="34.69" xlink:href="#radial-gradient-6"/><filter id="luminosity-noclip-8" x="9.06" y="20.66" width="45.42" height="77.73" filterUnits="userSpaceOnUse" color-interpolation-filters="sRGB"><feFlood flood-color="#fff" result="bg"/><feBlend in="SourceGraphic" in2="bg"/></filter><mask id="mask-8" x="9.06" y="20.66" width="45.42" height="77.73" maskUnits="userSpaceOnUse"><g class="cls-5"><path class="cls-6" d="M54.48,20.66s-41.55,26-45.29,77.73C9.19,98.39,4.34,49.08,54.48,20.66Z"/></g></mask><radialGradient id="radial-gradient-8" cx="-5.76" cy="71.87" r="48.78" xlink:href="#radial-gradient-6"/><filter id="luminosity-noclip-9" x="48.75" y="64.51" width="145.39" height="98.29" filterUnits="userSpaceOnUse" color-interpolation-filters="sRGB"><feFlood flood-color="#fff" result="bg"/><feBlend in="SourceGraphic" in2="bg"/></filter><mask id="mask-9" x="48.75" y="64.51" width="145.39" height="98.29" maskUnits="userSpaceOnUse"><g class="cls-7"><path class="cls-8" d="M153.85,64.51S152.31,165,48.75,151c0,0,22.34,15,61.93,11.11s64.21-33.29,83.46-27.16C194.14,135,191.57,82,153.85,64.51Z"/></g></mask><radialGradient id="radial-gradient-9" cx="114.87" cy="119.43" r="100.7" xlink:href="#radial-gradient-6"/><filter id="luminosity-noclip-10" x="93.62" y="90.36" width="31.91" height="48.2" filterUnits="userSpaceOnUse" color-interpolation-filters="sRGB"><feFlood flood-color="#fff" result="bg"/><feBlend in="SourceGraphic" in2="bg"/></filter><mask id="mask-10" x="93.62" y="90.36" width="31.91" height="48.2" maskUnits="userSpaceOnUse"><g class="cls-9"><path class="cls-10" d="M124.4,90.36s1,35.19-30.78,48.2C93.62,138.56,132.57,134.23,124.4,90.36Z"/></g></mask><radialGradient id="radial-gradient-10" cx="101.04" cy="125.12" r="28.77" xlink:href="#radial-gradient-6"/></defs><title>trompa</title><g id="Camada_2" data-name="Camada 2"><g id="Layer_1" data-name="Layer 1"><path class="cls-11" d="M21,59.61S-6.43,76.77,1.41,122.69c8.15,47.75,71.26,66.88,110.26,66.81s60.92-13.87,83.21,4.56c0,0,16.28-27.29-.75-81.63-15.62-49.84-43.71-54.58-43.71-54.58s10.11,59.64-57.76,85.56S-9.49,96.67,21,59.61Z"/><path class="cls-12" d="M24.65,54c27.13-29.09,99.59-19.71,107.14,27.5C142.59,149,64,167.16,26.5,139.14c-30.23-22.6-21.92-63-6.8-86.32,21.59-33.26,52.17-44,52.17-44l2,5s-28.67,10.14-50,41.28C5.74,81.62,9.79,124.52,45.1,136.72s74.82-9.7,77-45.47c1.62-26.48-26.95-46.71-54.93-46S25.74,58,15.87,72.1C15.87,72.1,17.52,63.65,24.65,54Z"/><path class="cls-11" d="M100,97.42c-1.46,0-3.09,0-4.85-.1l-1.12,0C73,96.46,53.05,95.7,43,95c-9-.59-17-1.94-16.72-11.88.2-6.41,4.87-10.24,12.52-10.24a17.21,17.21,0,0,1,1.77.08c4.35.37,12.76,1,22.49,1.78C79.47,76,98,77.47,103.83,78.12c5.33.6,9,2.2,10.92,4.76a8.07,8.07,0,0,1,1.38,6.38C115.18,94.79,112.53,97.42,100,97.42ZM38.84,77c-6.84,0-8.37,3.42-8.46,6.3-.15,5.06,1.78,7,12.93,7.71,9.95.66,29.85,1.42,50.92,2.23l1.12,0c1.71.07,3.29.1,4.69.1,11.27,0,11.6-1.9,12.1-4.79a4,4,0,0,0-.64-3.25c-1.2-1.61-4-2.7-8.12-3.17-5.73-.64-24.25-2.06-40.59-3.33C53,78.07,44.63,77.42,40.26,77,39.79,77,39.31,77,38.84,77Z"/><path class="cls-11" d="M92,124.54c-1.15,0-2.39,0-3.69-.08l-1.39-.06c-20.8-.8-34.54-1.33-44.5-2-9-.58-17-1.93-16.71-11.87.18-6.41,4.86-10.24,12.51-10.24.59,0,1.19,0,1.77.07,5.93.52,16.54,1.32,26.81,2.11,10,.76,19.48,1.47,24,1.87,11.32,1,19.29,2.36,18.77,10.61C109.18,121.85,104.24,124.54,92,124.54ZM38.23,104.35c-6.83,0-8.38,3.43-8.46,6.31-.15,5,1.78,7,12.92,7.71,9.91.65,23.63,1.18,44.4,2l1.39.06c1.24,0,2.43.07,3.53.07,13.19,0,13.4-3.34,13.55-5.78.22-3.48-1.82-5.12-15.08-6.3-4.52-.41-14-1.12-24-1.88-10.27-.78-20.9-1.59-26.86-2.11Q39,104.35,38.23,104.35Z"/><path class="cls-13" d="M88.13,138H88a8.35,8.35,0,0,1-6-2.5,7.87,7.87,0,0,1-2.13-5.72c0-1.41.1-3.78.17-6.51.11-4.08.23-9.18.36-12.74.24-7-2.42-7.22-3.42-7.3h-.22c-2.53,0-2.86,4.91-2.89,5.47-.08,1.45-.2,3.44-.34,5.78-.21,3.34-.45,7.35-.67,11.4-.47,8.89-5.27,12.06-9.6,12.06a8.72,8.72,0,0,1-1-.06c-5.82-.59-9.34-5.23-9.17-12.11.1-4.26.71-18.16,1.25-30.43.25-5.84.5-11.36.66-15.37.61-14.47-4.44-16.67-8.28-17.06a6.82,6.82,0,0,0-5.95,2.38C38.25,68,37.21,72.89,37.9,78.5c.56,4.61,1.35,15.93-3.44,21.33a8.5,8.5,0,0,1-8.39,2.65,9.2,9.2,0,0,1-6.8-5.68c-3.63-8.26-.15-22.6,5.16-31.15,5-8.05,12.58-12.49,21.35-12.49l1.2,0c10.54.48,16.79,6.67,16.69,16.56-.11,10.63-.89,28.82-1.57,40.54-.17,2.86-.68,11.56,1.15,13.49a1,1,0,0,0,.8.33c1.64,0,2-3.87,2.63-11.26.07-.82.14-1.69.22-2.59.69-8.12,2.47-17.42,10.07-17.42l.72,0c6,.44,8.35,6.31,8.14,20.27l0,1.71c-.09,4.79-.17,9.73,1.08,11a1.06,1.06,0,0,0,.85.29h.2c2.14-.17,2.61-2.72,2.67-6.78,0-.3,0-.57,0-.82.08-2.86.37-8.3.69-14.07.37-7,.8-15,.94-20,.25-8.49.53-18.1,12-21.06a18.74,18.74,0,0,1,4.73-.62,16.54,16.54,0,0,1,11.9,4.86A14.57,14.57,0,0,1,125,78.38c-.18,5.73-3.06,12.81-15.72,14.07-5.68.57-8.41,1.53-8.79,7.8-.42,6.84-1.12,18.29-2,25.24C98,129.23,96,138,88.13,138Zm-4.79-11.48c0,1.37-.07,2.54-.1,3.36a4.5,4.5,0,0,0,1.2,3.28A4.94,4.94,0,0,0,88,134.56h.11c4.78,0,6.42-5.17,7-9.51.85-6.83,1.55-18.21,2-25,.56-9.09,5.92-10.37,11.84-11,8.32-.83,12.47-4.36,12.67-10.81a11.14,11.14,0,0,0-3.14-8.3A13.21,13.21,0,0,0,109,66.15a15.21,15.21,0,0,0-3.88.51c-8.36,2.16-9.17,8.48-9.44,17.88-.15,5.13-.57,13.09-.95,20.13-.31,5.73-.6,11.15-.68,14,0,.24,0,.49,0,.76,0,3.14-.15,9.67-5.8,10.11a4.5,4.5,0,0,1-3.72-1.29A5.6,5.6,0,0,1,83.34,126.47Zm-37.41-67a10.28,10.28,0,0,1,1.1.06c8.16.83,11.86,7.55,11.32,20.56-.16,4-.41,9.53-.66,15.38-.54,12.25-1.15,26.14-1.25,30.36-.13,5.1,2.11,8.26,6.14,8.67s6.58-2.94,6.89-8.82c.23-4.06.47-8.09.67-11.43.14-2.32.26-4.31.34-5.75a.28.28,0,0,1,0-.09c-.09.69-.16,1.41-.22,2.18s-.15,1.76-.21,2.57c-.76,9.24-1.18,14.32-6,14.37h0a4.38,4.38,0,0,1-3.31-1.39c-2-2.15-2.62-6.64-2.07-16,.68-11.68,1.46-29.8,1.56-40.38,0-4.67-1.64-12.6-13.46-13.14-.35,0-.69,0-1,0-5.35,0-12.89,1.89-18.48,10.88-5.47,8.82-7.73,21.64-4.93,28a5.73,5.73,0,0,0,4.32,3.72,5.17,5.17,0,0,0,5.24-1.56c2.69-3,3.67-10,2.62-18.68C33.73,72.24,35,66.57,38.21,63A10.08,10.08,0,0,1,45.93,59.43ZM77,96.22c-1.3,0-4.46,0-6.08,9.32.88-3.61,3-5.75,5.86-5.75l.51,0a6.17,6.17,0,0,1,4.53,2.33c-.91-4.81-2.63-5.78-4.34-5.9A3.93,3.93,0,0,0,77,96.22Z"/><polygon class="cls-14" points="75.83 12.93 73.75 8 71.87 8.79 73.83 13.79 75.83 12.93"/><path class="cls-12" d="M75.83,12.93,73.75,8l6.54-8S83,1.15,84.83,5.42a11.7,11.7,0,0,1,1,7.3Z"/><g class="cls-15"><path class="cls-16" d="M28.31,51.93s20.2-17.87,54.76-12.3,43.2,28.61,43.2,28.61S111.86,49,79.74,43.92,28.31,51.93,28.31,51.93Z"/></g><g class="cls-17"><path class="cls-18" d="M16.94,115S35.5,150.43,80.77,139.1c0,0-17.4,12.33-41.88,1C17.38,130.15,16.94,115,16.94,115Z"/></g><g class="cls-19"><path class="cls-20" d="M54.48,20.66s-41.55,26-45.29,77.73C9.19,98.39,4.34,49.08,54.48,20.66Z"/></g><g class="cls-21"><path class="cls-22" d="M153.85,64.51S152.31,165,48.75,151c0,0,22.34,15,61.93,11.11s64.21-33.29,83.46-27.16C194.14,135,191.57,82,153.85,64.51Z"/></g><g class="cls-23"><path class="cls-24" d="M124.4,90.36s1,35.19-30.78,48.2C93.62,138.56,132.57,134.23,124.4,90.36Z"/></g></g></g></svg>