<svg xmlns="http://www.w3.org/2000/svg" xmlns:xlink="http://www.w3.org/1999/xlink" viewBox="0 0 288.72 174.7"><defs><style>.cls-1{mask:url(#mask);filter:url(#luminosity-noclip-2);}.cls-2{mix-blend-mode:multiply;fill:url(#radial-gradient);}.cls-3{fill:#fba225;}.cls-4{fill:#fbb925;}.cls-5{mask:url(#mask-2);}.cls-6{fill:url(#radial-gradient-2);}.cls-7{fill:none;}.cls-8{filter:url(#luminosity-noclip);}</style><filter id="luminosity-noclip" x="70.63" y="-8692.86" width="204.65" height="32766" filterUnits="userSpaceOnUse" color-interpolation-filters="sRGB"><feFlood flood-color="#fff" result="bg"/><feBlend in="SourceGraphic" in2="bg"/></filter><mask id="mask" x="70.63" y="-8692.86" width="204.65" height="32766" maskUnits="userSpaceOnUse"><g class="cls-8"/></mask><radialGradient id="radial-gradient" cx="171.93" cy="33.51" r="142.61" gradientUnits="userSpaceOnUse"><stop offset="0" stop-color="#fff"/><stop offset="0.19" stop-color="#c6c6c6"/><stop offset="0.57" stop-color="#5c5c5c"/><stop offset="0.82" stop-color="#1a1a1a"/><stop offset="0.94"/></radialGradient><filter id="luminosity-noclip-2" x="70.63" y="4.74" width="204.65" height="108.88" filterUnits="userSpaceOnUse" color-interpolation-filters="sRGB"><feFlood flood-color="#fff" result="bg"/><feBlend in="SourceGraphic" in2="bg"/></filter><mask id="mask-2" x="70.63" y="4.74" width="204.65" height="108.88" maskUnits="userSpaceOnUse"><g class="cls-1"><path class="cls-2" d="M254.14,4.74s-17.91,55-67.23,71.62C131,94,70.63,113.61,70.63,113.61s75.12-19.34,121-32.85,85.77-7.23,83.56-29.85S257.59,5.05,254.14,4.74Z"/></g></mask><radialGradient id="radial-gradient-2" cx="171.93" cy="33.51" r="142.61" gradientUnits="userSpaceOnUse"><stop offset="0" stop-color="#fff"/><stop offset="0.94" stop-color="#fff"/></radialGradient></defs><title>trompete</title><g id="Camada_2" data-name="Camada 2"><g id="Layer_1" data-name="Layer 1"><polygon class="cls-3" points="49.45 129.9 12.48 141.65 8.86 131.64 77.28 108.89 49.45 129.9"/><path class="cls-3" d="M106.81,169.69c.72,2.72-1.68,3.89-4.41,4.61h0c-2.72.72-5,.72-5.7-2l-18-65.88c-.72-2.73,1.33-4.35,4-5.07h0c2.73-.72,5-.34,5.77,2.39Z"/><path class="cls-4" d="M88.94,99a1.84,1.84,0,0,1-1.26,2.29l-9,2.6a1.88,1.88,0,0,1-2.31-1.27h0a1.86,1.86,0,0,1,1.27-2.3l9-2.59A1.85,1.85,0,0,1,88.94,99Z"/><path class="cls-3" d="M123.23,164.37c.72,2.72-1.69,3.88-4.41,4.6h0c-2.72.73-5,.73-5.7-2l-18-65.87c-.72-2.72,1.34-4.35,4.06-5.08h0c2.72-.72,5-.32,5.77,2.4Z"/><path class="cls-4" d="M105.36,93.69a1.86,1.86,0,0,1-1.27,2.3l-9,2.59a1.86,1.86,0,0,1-2.3-1.27h0A1.85,1.85,0,0,1,94.08,95l9-2.6a1.87,1.87,0,0,1,2.3,1.28Z"/><path class="cls-3" d="M140.62,159c.72,2.72-1.68,3.89-4.41,4.61h0c-2.72.72-5,.72-5.7-2l-18-65.88c-.73-2.73,1.33-4.35,4.06-5.07h0c2.72-.72,5-.34,5.76,2.38Z"/><path class="cls-4" d="M122.75,88.28a1.84,1.84,0,0,1-1.27,2.29l-9,2.6a1.88,1.88,0,0,1-2.3-1.27h0a1.88,1.88,0,0,1,1.27-2.31l9-2.58a1.85,1.85,0,0,1,2.3,1.27Z"/><path class="cls-4" d="M287.16,79.61C283.39,48,269.77,20.17,259,4.52c-6.37-8.7-6.37-3.16-9,2.61-11.37,25.15-30.94,57.33-64.21,67.55s-95,29.78-108.06,34.13-34.35,16.31-31.09,36.53c3.05,17,21.31,27.83,45.23,22.39s40.59-10.08,49.14-14.13c16.95-8,24.34-22.39,20.65-38.48s-12.39-15.87-12.39-15.87L187.1,87.82c14.23-3.67,41.2-7.34,92.78,20.94C287.64,112.42,290.93,111.2,287.16,79.61ZM149.89,118.22c3.28,13.24-1.88,23.57-42.46,35-33.77,9.53-45.81,2.17-47.84-8.41s5.66-19.86,17.17-24c0,0,43.77-13.23,52.55-16.11S146.61,105,149.89,118.22Z"/><path class="cls-4" d="M1,136.42a61.66,61.66,0,0,0,3.19,8c1.89,3.91,3.91,3.48,6.52,2.46s3-2.46,1.31-6.66S9,131.79,8,130.05s-2.61-2.18-5.22-1.17S-1,131.64,1,136.42Z"/><g class="cls-5"><path class="cls-6" d="M254.14,4.74s-17.91,55-67.23,71.62C131,94,70.63,113.61,70.63,113.61s75.12-19.34,121-32.85,85.77-7.23,83.56-29.85S257.59,5.05,254.14,4.74Z"/></g><path class="cls-7" d="M92,116.22l10.61,38.3c1.56-.39,3.15-.81,4.82-1.28l1.79-.52L98.71,114.17Z"/><path class="cls-7" d="M149.89,118.22c-1.21-4.91-3.15-8.42-5.55-10.76l-2,.7,2-.7c-3.62-3.53-8.3-4.38-13.18-3.25l-.06,2.07.06-2.07c-.61.14-1.23.31-1.85.51-.84.28-2,.64-3.4,1.09l10.18,36.8C150.42,135,152.13,127.28,149.89,118.22Z"/><path class="cls-7" d="M76.76,120.83c-11.51,4.14-19.2,13.42-17.17,24,1.7,8.83,10.38,15.4,32.83,11.8L82.21,119.19Z"/><path class="cls-7" d="M108.5,111.19l10.65,38.44c2.66-.89,5.11-1.79,7.37-2.68l-10.4-38.1Z"/><path class="cls-3" d="M77,109.07l.25-.18L8.86,131.64l2.1,5.79c.34.91.71,1.83,1.09,2.77.21.51.39,1,.53,1.41L49.17,130C54.81,119.19,67.75,112.3,77,109.07Z"/><path class="cls-3" d="M96.7,172.3c.72,2.72,3,2.72,5.7,2s5.13-1.89,4.41-4.61l-1.42-5.13q-4.81,1.19-10.14,2.41Z"/><path class="cls-3" d="M88.55,103.74A3.4,3.4,0,0,0,87,101.51l-8,2.31a3.43,3.43,0,0,0-.24,2.6l.52,1.91c2.34-.78,5.66-1.85,9.7-3.15Z"/><path class="cls-3" d="M82.21,119.19l10.21,37.44q4.69-.75,10.19-2.11L92,116.22Z"/><path class="cls-4" d="M82.78,101.35a5.59,5.59,0,0,1,4.19.16l.71-.21a1.85,1.85,0,0,0-1-3.56l-9,2.59a1.86,1.86,0,1,0,1,3.57l.27-.08A5.89,5.89,0,0,1,82.78,101.35Z"/><path class="cls-4" d="M82.78,101.35A5.89,5.89,0,0,0,79,103.82l8-2.31A5.59,5.59,0,0,0,82.78,101.35Z"/><path class="cls-3" d="M98.71,114.17l10.51,38.55c3.6-1,6.9-2.06,9.93-3.09L108.5,111.19Z"/><path class="cls-3" d="M105,98.42a3.43,3.43,0,0,0-1.58-2.23l-8,2.31a3.39,3.39,0,0,0-.25,2.6l.53,1.92,9.71-3.1Z"/><path class="cls-3" d="M113.12,167c.72,2.73,3,2.73,5.7,2s5.13-1.88,4.41-4.6l-1.16-4.18q-4.63,1.34-10.06,2.72Z"/><path class="cls-4" d="M99.2,96a5.68,5.68,0,0,1,4.19.17l.7-.2a1.86,1.86,0,0,0-1-3.58l-9,2.6a1.86,1.86,0,0,0,1,3.57l.28-.08A6,6,0,0,1,99.2,96Z"/><path class="cls-4" d="M99.2,96a6,6,0,0,0-3.81,2.48l8-2.31A5.68,5.68,0,0,0,99.2,96Z"/><path class="cls-3" d="M122.36,93a3.38,3.38,0,0,0-1.58-2.22l-8,2.31a3.38,3.38,0,0,0-.24,2.6L113,97.5l9.72-3.09Z"/><path class="cls-3" d="M126.52,147a90.64,90.64,0,0,0,9.57-4.34l-10.18-36.8c-2.57.81-6,1.86-9.79,3Z"/><path class="cls-3" d="M130.51,161.57c.72,2.72,3,2.72,5.7,2s5.13-1.89,4.41-4.61l-1.27-4.59c-2.65,1.15-5.95,2.34-9.83,3.59Z"/><path class="cls-4" d="M116.6,90.62a5.56,5.56,0,0,1,4.18.16l.7-.21a1.85,1.85,0,1,0-1-3.56l-9,2.58a1.86,1.86,0,0,0,1,3.58l.28-.08A5.89,5.89,0,0,1,116.6,90.62Z"/><path class="cls-4" d="M116.6,90.62a5.89,5.89,0,0,0-3.82,2.47l8-2.31A5.56,5.56,0,0,0,116.6,90.62Z"/><path class="cls-4" d="M107.43,153.24c-1.67.47-3.26.89-4.82,1.28l2.78,10q3.44-.84,6.62-1.65l-2.79-10.19Z"/><path class="cls-3" d="M131.16,104.21c4.88-1.13,9.56-.28,13.18,3.25l12-4.22c-3.29-3.82-6.58-4-7-4l-18.2,4.9Z"/><path class="cls-4" d="M119.15,149.63l2.92,10.56c2.7-.76,5.17-1.51,7.45-2.23l-3-11C124.26,147.84,121.81,148.74,119.15,149.63Z"/><path class="cls-4" d="M77,109.07C67.75,112.3,54.81,119.19,49.17,130l.28-.09Z"/><path class="cls-4" d="M92.42,156.63,95.25,167q5.32-1.23,10.14-2.41l-2.78-10Q97.1,155.89,92.42,156.63Z"/><path class="cls-4" d="M109.22,152.72,112,162.91q5.43-1.4,10.06-2.72l-2.92-10.56C116.12,150.66,112.82,151.69,109.22,152.72Z"/><path class="cls-4" d="M126.52,147l3,11c3.88-1.25,7.18-2.44,9.83-3.59l-3.26-11.76A90.64,90.64,0,0,1,126.52,147Z"/><path class="cls-4" d="M11,137.43a69.72,69.72,0,0,0-3-7.38c-1-1.75-2.61-2.18-5.22-1.17S-1,131.64,1,136.42a61.66,61.66,0,0,0,3.19,8c1.89,3.91,3.91,3.48,6.52,2.46,2.3-.89,2.91-2.12,1.84-5.25l-.1,0Z"/><path class="cls-4" d="M11,137.43l1.52,4.22.1,0c-.14-.44-.32-.9-.53-1.41C11.67,139.26,11.3,138.34,11,137.43Z"/></g></g></svg>