<svg xmlns="http://www.w3.org/2000/svg" xmlns:xlink="http://www.w3.org/1999/xlink" viewBox="0 0 337 143.79"><defs><style>.cls-1{mask:url(#mask);filter:url(#luminosity-noclip-17);}.cls-10,.cls-12,.cls-14,.cls-16,.cls-18,.cls-2,.cls-20,.cls-22,.cls-24,.cls-26,.cls-28,.cls-30,.cls-32,.cls-4,.cls-6,.cls-8{mix-blend-mode:multiply;}.cls-2{fill:url(#radial-gradient);}.cls-3{mask:url(#mask-2);filter:url(#luminosity-noclip-22);}.cls-4{fill:url(#radial-gradient-2);}.cls-5{mask:url(#mask-3);filter:url(#luminosity-noclip-23);}.cls-6{fill:url(#radial-gradient-3);}.cls-7{mask:url(#mask-4);filter:url(#luminosity-noclip-24);}.cls-8{fill:url(#radial-gradient-4);}.cls-9{mask:url(#mask-5);filter:url(#luminosity-noclip-25);}.cls-10{fill:url(#radial-gradient-5);}.cls-11{mask:url(#mask-6);filter:url(#luminosity-noclip-26);}.cls-12{fill:url(#radial-gradient-6);}.cls-13{mask:url(#mask-7);filter:url(#luminosity-noclip-18);}.cls-14{fill:url(#radial-gradient-7);}.cls-15{mask:url(#mask-8);filter:url(#luminosity-noclip-27);}.cls-16{fill:url(#radial-gradient-8);}.cls-17{mask:url(#mask-9);filter:url(#luminosity-noclip-28);}.cls-18{fill:url(#radial-gradient-9);}.cls-19{mask:url(#mask-10);filter:url(#luminosity-noclip-29);}.cls-20{fill:url(#radial-gradient-10);}.cls-21{mask:url(#mask-11);filter:url(#luminosity-noclip-30);}.cls-22{fill:url(#radial-gradient-11);}.cls-23{mask:url(#mask-12);filter:url(#luminosity-noclip-31);}.cls-24{fill:url(#radial-gradient-12);}.cls-25{mask:url(#mask-13);filter:url(#luminosity-noclip-32);}.cls-26{fill:url(#radial-gradient-13);}.cls-27{mask:url(#mask-14);filter:url(#luminosity-noclip-19);}.cls-28{fill:url(#radial-gradient-14);}.cls-29{mask:url(#mask-15);filter:url(#luminosity-noclip-20);}.cls-30{fill:url(#radial-gradient-15);}.cls-31{mask:url(#mask-16);filter:url(#luminosity-noclip-21);}.cls-32{fill:url(#radial-gradient-16);}.cls-33{fill:#f2ad00;}.cls-34{fill:#f9b800;}.cls-35{fill:#ffc81a;}.cls-36{mask:url(#mask-17);}.cls-37{fill:url(#radial-gradient-17);}.cls-38{mask:url(#mask-18);}.cls-39{fill:url(#radial-gradient-18);}.cls-40{mask:url(#mask-19);}.cls-41{fill:url(#radial-gradient-19);}.cls-42{mask:url(#mask-20);}.cls-43{fill:url(#radial-gradient-20);}.cls-44{mask:url(#mask-21);}.cls-45{fill:url(#radial-gradient-21);}.cls-46{mask:url(#mask-22);}.cls-47{fill:url(#radial-gradient-22);}.cls-48{mask:url(#mask-23);}.cls-49{fill:url(#radial-gradient-23);}.cls-50{mask:url(#mask-24);}.cls-51{fill:url(#radial-gradient-24);}.cls-52{mask:url(#mask-25);}.cls-53{fill:url(#radial-gradient-25);}.cls-54{mask:url(#mask-26);}.cls-55{fill:url(#radial-gradient-26);}.cls-56{mask:url(#mask-27);}.cls-57{fill:url(#radial-gradient-27);}.cls-58{mask:url(#mask-28);}.cls-59{fill:url(#radial-gradient-28);}.cls-60{mask:url(#mask-29);}.cls-61{fill:url(#radial-gradient-29);}.cls-62{mask:url(#mask-30);}.cls-63{fill:url(#radial-gradient-30);}.cls-64{mask:url(#mask-31);}.cls-65{fill:url(#radial-gradient-31);}.cls-66{mask:url(#mask-32);}.cls-67{fill:url(#radial-gradient-32);}.cls-68{filter:url(#luminosity-noclip-16);}.cls-69{filter:url(#luminosity-noclip-15);}.cls-70{filter:url(#luminosity-noclip-14);}.cls-71{filter:url(#luminosity-noclip-13);}.cls-72{filter:url(#luminosity-noclip-12);}.cls-73{filter:url(#luminosity-noclip-11);}.cls-74{filter:url(#luminosity-noclip-10);}.cls-75{filter:url(#luminosity-noclip-9);}.cls-76{filter:url(#luminosity-noclip-8);}.cls-77{filter:url(#luminosity-noclip-7);}.cls-78{filter:url(#luminosity-noclip-6);}.cls-79{filter:url(#luminosity-noclip-5);}.cls-80{filter:url(#luminosity-noclip-4);}.cls-81{filter:url(#luminosity-noclip-3);}.cls-82{filter:url(#luminosity-noclip-2);}.cls-83{filter:url(#luminosity-noclip);}</style><filter id="luminosity-noclip" x="118.81" y="-8131.29" width="117.11" height="32766" filterUnits="userSpaceOnUse" color-interpolation-filters="sRGB"><feFlood flood-color="#fff" result="bg"/><feBlend in="SourceGraphic" in2="bg"/></filter><mask id="mask" x="118.81" y="-8131.29" width="117.11" height="32766" maskUnits="userSpaceOnUse"><g class="cls-83"/></mask><radialGradient id="radial-gradient" cx="187.25" cy="18.74" r="115.53" gradientUnits="userSpaceOnUse"><stop offset="0.11" stop-color="#fff"/><stop offset="0.34" stop-color="#b2b2b2"/><stop offset="0.57" stop-color="#666"/><stop offset="0.77" stop-color="#2f2f2f"/><stop offset="0.92" stop-color="#0d0d0d"/><stop offset="1"/></radialGradient><filter id="luminosity-noclip-2" x="309.36" y="-8131.29" width="26.91" height="32766" filterUnits="userSpaceOnUse" color-interpolation-filters="sRGB"><feFlood flood-color="#fff" result="bg"/><feBlend in="SourceGraphic" in2="bg"/></filter><mask id="mask-2" x="309.36" y="-8131.29" width="26.91" height="32766" maskUnits="userSpaceOnUse"><g class="cls-82"/></mask><radialGradient id="radial-gradient-2" cx="371.4" cy="98.69" r="31.07" gradientTransform="matrix(0.99, 0.15, -0.15, 0.99, -7.08, -31.48)" xlink:href="#radial-gradient"/><filter id="luminosity-noclip-3" x="28.23" y="-8131.29" width="91.01" height="32766" filterUnits="userSpaceOnUse" color-interpolation-filters="sRGB"><feFlood flood-color="#fff" result="bg"/><feBlend in="SourceGraphic" in2="bg"/></filter><mask id="mask-3" x="28.23" y="-8131.29" width="91.01" height="32766" maskUnits="userSpaceOnUse"><g class="cls-81"/></mask><radialGradient id="radial-gradient-3" cx="106.01" cy="53.99" r="43.36" gradientTransform="translate(-18.54 -26.46) rotate(5.53)" xlink:href="#radial-gradient"/><filter id="luminosity-noclip-4" x="20.09" y="-8131.29" width="67.16" height="32766" filterUnits="userSpaceOnUse" color-interpolation-filters="sRGB"><feFlood flood-color="#fff" result="bg"/><feBlend in="SourceGraphic" in2="bg"/></filter><mask id="mask-4" x="20.09" y="-8131.29" width="67.16" height="32766" maskUnits="userSpaceOnUse"><g class="cls-80"/></mask><radialGradient id="radial-gradient-4" cx="83.86" cy="55.35" r="32" gradientTransform="translate(-18.54 -26.46) rotate(5.53)" xlink:href="#radial-gradient"/><filter id="luminosity-noclip-5" x="23.66" y="-8131.29" width="67.19" height="32766" filterUnits="userSpaceOnUse" color-interpolation-filters="sRGB"><feFlood flood-color="#fff" result="bg"/><feBlend in="SourceGraphic" in2="bg"/></filter><mask id="mask-5" x="23.66" y="-8131.29" width="67.19" height="32766" maskUnits="userSpaceOnUse"><g class="cls-79"/></mask><radialGradient id="radial-gradient-5" cx="82.56" cy="100.33" r="31.98" gradientTransform="translate(-11.02 -29.22) rotate(7.33)" xlink:href="#radial-gradient"/><filter id="luminosity-noclip-6" x="23.41" y="-8131.29" width="91.04" height="32766" filterUnits="userSpaceOnUse" color-interpolation-filters="sRGB"><feFlood flood-color="#fff" result="bg"/><feBlend in="SourceGraphic" in2="bg"/></filter><mask id="mask-6" x="23.41" y="-8131.29" width="91.04" height="32766" maskUnits="userSpaceOnUse"><g class="cls-78"/></mask><radialGradient id="radial-gradient-6" cx="81.08" cy="86.45" r="42.91" gradientTransform="translate(-9.81 -29.72) rotate(7.57)" xlink:href="#radial-gradient"/><filter id="luminosity-noclip-7" x="178.21" y="-8131.29" width="136.59" height="32766" filterUnits="userSpaceOnUse" color-interpolation-filters="sRGB"><feFlood flood-color="#fff" result="bg"/><feBlend in="SourceGraphic" in2="bg"/></filter><mask id="mask-7" x="178.21" y="-8131.29" width="136.59" height="32766" maskUnits="userSpaceOnUse"><g class="cls-77"/></mask><radialGradient id="radial-gradient-7" cx="279.34" cy="67.01" r="62.63" gradientTransform="matrix(0.99, 0.15, -0.15, 0.99, -7.08, -31.48)" xlink:href="#radial-gradient"/><filter id="luminosity-noclip-8" x="103.02" y="-8131.29" width="9.68" height="32766" filterUnits="userSpaceOnUse" color-interpolation-filters="sRGB"><feFlood flood-color="#fff" result="bg"/><feBlend in="SourceGraphic" in2="bg"/></filter><mask id="mask-8" x="103.02" y="-8131.29" width="9.68" height="32766" maskUnits="userSpaceOnUse"><g class="cls-76"/></mask><radialGradient id="radial-gradient-8" cx="143.22" cy="137.89" r="10.83" gradientTransform="matrix(0.99, 0.15, -0.15, 0.99, -7.08, -31.48)" xlink:href="#radial-gradient"/><filter id="luminosity-noclip-9" x="105.38" y="-8131.29" width="5.7" height="32766" filterUnits="userSpaceOnUse" color-interpolation-filters="sRGB"><feFlood flood-color="#fff" result="bg"/><feBlend in="SourceGraphic" in2="bg"/></filter><mask id="mask-9" x="105.38" y="-8131.29" width="5.7" height="32766" maskUnits="userSpaceOnUse"><g class="cls-75"/></mask><radialGradient id="radial-gradient-9" cx="310.53" cy="164.7" r="16.84" gradientTransform="translate(-90.31 372.22) rotate(-85.28)" xlink:href="#radial-gradient"/><filter id="luminosity-noclip-10" x="127.19" y="-8131.29" width="4.58" height="32766" filterUnits="userSpaceOnUse" color-interpolation-filters="sRGB"><feFlood flood-color="#fff" result="bg"/><feBlend in="SourceGraphic" in2="bg"/></filter><mask id="mask-10" x="127.19" y="-8131.29" width="4.58" height="32766" maskUnits="userSpaceOnUse"><g class="cls-74"/></mask><radialGradient id="radial-gradient-10" cx="272.03" cy="186.09" r="15.46" gradientTransform="translate(-93.62 365.25) rotate(-83.67)" xlink:href="#radial-gradient"/><filter id="luminosity-noclip-11" x="154.5" y="-8131.29" width="4.59" height="32766" filterUnits="userSpaceOnUse" color-interpolation-filters="sRGB"><feFlood flood-color="#fff" result="bg"/><feBlend in="SourceGraphic" in2="bg"/></filter><mask id="mask-11" x="154.5" y="-8131.29" width="4.59" height="32766" maskUnits="userSpaceOnUse"><g class="cls-73"/></mask><radialGradient id="radial-gradient-11" cx="275.34" cy="213.21" r="15.46" gradientTransform="translate(-93.62 365.25) rotate(-83.67)" xlink:href="#radial-gradient"/><filter id="luminosity-noclip-12" x="71.79" y="-8131.29" width="5.71" height="32766" filterUnits="userSpaceOnUse" color-interpolation-filters="sRGB"><feFlood flood-color="#fff" result="bg"/><feBlend in="SourceGraphic" in2="bg"/></filter><mask id="mask-12" x="71.79" y="-8131.29" width="5.71" height="32766" maskUnits="userSpaceOnUse"><g class="cls-72"/></mask><radialGradient id="radial-gradient-12" cx="307.27" cy="131.26" r="16.84" gradientTransform="translate(-90.31 372.22) rotate(-85.28)" xlink:href="#radial-gradient"/><filter id="luminosity-noclip-13" x="45.4" y="-8131.29" width="5.7" height="32766" filterUnits="userSpaceOnUse" color-interpolation-filters="sRGB"><feFlood flood-color="#fff" result="bg"/><feBlend in="SourceGraphic" in2="bg"/></filter><mask id="mask-13" x="45.4" y="-8131.29" width="5.7" height="32766" maskUnits="userSpaceOnUse"><g class="cls-71"/></mask><radialGradient id="radial-gradient-13" cx="304.4" cy="105.03" r="16.83" gradientTransform="translate(-90.31 372.22) rotate(-85.28)" xlink:href="#radial-gradient"/><filter id="luminosity-noclip-14" x="123.83" y="-8131.29" width="38.46" height="32766" filterUnits="userSpaceOnUse" color-interpolation-filters="sRGB"><feFlood flood-color="#fff" result="bg"/><feBlend in="SourceGraphic" in2="bg"/></filter><mask id="mask-14" x="123.83" y="-8131.29" width="38.46" height="32766" maskUnits="userSpaceOnUse"><g class="cls-70"/></mask><radialGradient id="radial-gradient-14" cx="167.17" cy="91.56" r="23.03" gradientTransform="translate(-9.08 -29.23) rotate(7.96)" xlink:href="#radial-gradient"/><filter id="luminosity-noclip-15" x="126.58" y="-8131.29" width="36.45" height="32766" filterUnits="userSpaceOnUse" color-interpolation-filters="sRGB"><feFlood flood-color="#fff" result="bg"/><feBlend in="SourceGraphic" in2="bg"/></filter><mask id="mask-15" x="126.58" y="-8131.29" width="36.45" height="32766" maskUnits="userSpaceOnUse"><g class="cls-69"/></mask><radialGradient id="radial-gradient-15" cx="178.11" cy="128.71" r="21.83" gradientTransform="translate(-17.11 -24.71) rotate(6.52)" xlink:href="#radial-gradient"/><filter id="luminosity-noclip-16" x="168.85" y="-8131.29" width="136.58" height="32766" filterUnits="userSpaceOnUse" color-interpolation-filters="sRGB"><feFlood flood-color="#fff" result="bg"/><feBlend in="SourceGraphic" in2="bg"/></filter><mask id="mask-16" x="168.85" y="-8131.29" width="136.58" height="32766" maskUnits="userSpaceOnUse"><g class="cls-68"/></mask><radialGradient id="radial-gradient-16" cx="254.71" cy="96.8" r="62.62" gradientTransform="matrix(0.99, 0.14, -0.14, 0.99, -10.69, -27.54)" xlink:href="#radial-gradient"/><filter id="luminosity-noclip-17" x="118.81" y="1.81" width="117.11" height="73.64" filterUnits="userSpaceOnUse" color-interpolation-filters="sRGB"><feFlood flood-color="#fff" result="bg"/><feBlend in="SourceGraphic" in2="bg"/></filter><mask id="mask-17" x="118.81" y="1.81" width="117.11" height="73.64" maskUnits="userSpaceOnUse"><g class="cls-1"><path class="cls-2" d="M227.26,1.81s-26.78,45.12-71.32,48.94l-37.11,1.48,0,4.08s30.3-1,46.83-1.44,50.71,3.11,65.6,20.58C231.24,75.45,244.08,34.63,227.26,1.81Z"/></g></mask><radialGradient id="radial-gradient-17" cx="187.25" cy="18.74" r="115.53" gradientUnits="userSpaceOnUse"><stop offset="0.11" stop-color="#fff"/><stop offset="1" stop-color="#fff"/></radialGradient><filter id="luminosity-noclip-18" x="178.21" y="93.36" width="136.59" height="5.98" filterUnits="userSpaceOnUse" color-interpolation-filters="sRGB"><feFlood flood-color="#fff" result="bg"/><feBlend in="SourceGraphic" in2="bg"/></filter><mask id="mask-18" x="178.21" y="93.36" width="136.59" height="5.98" maskUnits="userSpaceOnUse"><g class="cls-13"><path class="cls-14" d="M180.63,99a2.85,2.85,0,0,1,.44-5.66L312,93.64a2.85,2.85,0,1,1,0,5.7l-130.88-.28A2.09,2.09,0,0,1,180.63,99Z"/></g></mask><radialGradient id="radial-gradient-18" cx="279.34" cy="67.01" r="62.63" gradientTransform="matrix(0.99, 0.15, -0.15, 0.99, -7.08, -31.48)" xlink:href="#radial-gradient-17"/><filter id="luminosity-noclip-19" x="123.83" y="91.1" width="38.46" height="10.78" filterUnits="userSpaceOnUse" color-interpolation-filters="sRGB"><feFlood flood-color="#fff" result="bg"/><feBlend in="SourceGraphic" in2="bg"/></filter><mask id="mask-19" x="123.83" y="91.1" width="38.46" height="10.78" maskUnits="userSpaceOnUse"><g class="cls-27"><path class="cls-28" d="M128.27,101.35a5.15,5.15,0,0,1,.67-10.25l28.15.47a5.16,5.16,0,1,1,.09,10.31L129,101.4A3.83,3.83,0,0,1,128.27,101.35Z"/></g></mask><radialGradient id="radial-gradient-19" cx="167.17" cy="91.56" r="23.03" gradientTransform="translate(-9.08 -29.23) rotate(7.96)" xlink:href="#radial-gradient-17"/><filter id="luminosity-noclip-20" x="126.58" y="129.67" width="36.45" height="9.99" filterUnits="userSpaceOnUse" color-interpolation-filters="sRGB"><feFlood flood-color="#fff" result="bg"/><feBlend in="SourceGraphic" in2="bg"/></filter><mask id="mask-20" x="126.58" y="129.67" width="36.45" height="9.99" maskUnits="userSpaceOnUse"><g class="cls-29"><path class="cls-30" d="M130.89,139.64a4.89,4.89,0,0,1,.4-9.74l26.69-.22a4.88,4.88,0,1,1,.33,9.76l-26.69.22A5.93,5.93,0,0,1,130.89,139.64Z"/></g></mask><radialGradient id="radial-gradient-20" cx="178.11" cy="128.71" r="21.83" gradientTransform="translate(-17.11 -24.71) rotate(6.52)" xlink:href="#radial-gradient-17"/><filter id="luminosity-noclip-21" x="168.85" y="129.92" width="136.58" height="7.33" filterUnits="userSpaceOnUse" color-interpolation-filters="sRGB"><feFlood flood-color="#fff" result="bg"/><feBlend in="SourceGraphic" in2="bg"/></filter><mask id="mask-21" x="168.85" y="129.92" width="136.58" height="7.33" maskUnits="userSpaceOnUse"><g class="cls-31"><path class="cls-32" d="M171.31,137.22a2.85,2.85,0,0,1,.36-5.67l130.87-1.63a2.86,2.86,0,0,1,.08,5.71l-130.88,1.62A3,3,0,0,1,171.31,137.22Z"/></g></mask><radialGradient id="radial-gradient-21" cx="254.71" cy="96.8" r="62.62" gradientTransform="matrix(0.99, 0.14, -0.14, 0.99, -10.69, -27.54)" xlink:href="#radial-gradient-17"/><filter id="luminosity-noclip-22" x="309.36" y="97.3" width="26.91" height="35.87" filterUnits="userSpaceOnUse" color-interpolation-filters="sRGB"><feFlood flood-color="#fff" result="bg"/><feBlend in="SourceGraphic" in2="bg"/></filter><mask id="mask-22" x="309.36" y="97.3" width="26.91" height="35.87" maskUnits="userSpaceOnUse"><g class="cls-3"><path class="cls-4" d="M318.88,97.3s12.73,5.54,12.3,17.13-7.4,16.89-21.82,18.19c0,0,27.3,5.36,26.91-17.67C336,99.29,318.88,97.3,318.88,97.3Z"/></g></mask><radialGradient id="radial-gradient-22" cx="371.4" cy="98.69" r="31.07" gradientTransform="matrix(0.99, 0.15, -0.15, 0.99, -7.08, -31.48)" xlink:href="#radial-gradient-17"/><filter id="luminosity-noclip-23" x="28.23" y="52.66" width="91.01" height="7.65" filterUnits="userSpaceOnUse" color-interpolation-filters="sRGB"><feFlood flood-color="#fff" result="bg"/><feBlend in="SourceGraphic" in2="bg"/></filter><mask id="mask-23" x="28.23" y="52.66" width="91.01" height="7.65" maskUnits="userSpaceOnUse"><g class="cls-5"><path class="cls-6" d="M30.59,60.31a2.62,2.62,0,0,1,.12-5.23l85.77-2.41a2.62,2.62,0,0,1,.27,5.23L31,60.32Z"/></g></mask><radialGradient id="radial-gradient-23" cx="106.01" cy="53.99" r="43.36" gradientTransform="translate(-18.54 -26.46) rotate(5.53)" xlink:href="#radial-gradient-17"/><filter id="luminosity-noclip-24" x="20.09" y="47.91" width="67.16" height="5.66" filterUnits="userSpaceOnUse" color-interpolation-filters="sRGB"><feFlood flood-color="#fff" result="bg"/><feBlend in="SourceGraphic" in2="bg"/></filter><mask id="mask-24" x="20.09" y="47.91" width="67.16" height="5.66" maskUnits="userSpaceOnUse"><g class="cls-7"><path class="cls-8" d="M21.83,53.55a1.93,1.93,0,0,1,.09-3.84l63.3-1.8a1.94,1.94,0,0,1,.2,3.87L22.11,53.56A.88.88,0,0,1,21.83,53.55Z"/></g></mask><radialGradient id="radial-gradient-24" cx="83.86" cy="55.35" r="32" gradientTransform="translate(-18.54 -26.46) rotate(5.53)" xlink:href="#radial-gradient-17"/><filter id="luminosity-noclip-25" x="23.66" y="101.15" width="67.19" height="4.05" filterUnits="userSpaceOnUse" color-interpolation-filters="sRGB"><feFlood flood-color="#fff" result="bg"/><feBlend in="SourceGraphic" in2="bg"/></filter><mask id="mask-25" x="23.66" y="101.15" width="67.19" height="4.05" maskUnits="userSpaceOnUse"><g class="cls-9"><path class="cls-10" d="M25.34,105a1.93,1.93,0,0,1,.22-3.84l63.32.19A1.93,1.93,0,0,1,89,105.2L25.63,105A1.42,1.42,0,0,1,25.34,105Z"/></g></mask><radialGradient id="radial-gradient-25" cx="82.56" cy="100.33" r="31.98" gradientTransform="translate(-11.02 -29.22) rotate(7.33)" xlink:href="#radial-gradient-17"/><filter id="luminosity-noclip-26" x="23.41" y="93.18" width="91.04" height="5.86" filterUnits="userSpaceOnUse" color-interpolation-filters="sRGB"><feFlood flood-color="#fff" result="bg"/><feBlend in="SourceGraphic" in2="bg"/></filter><mask id="mask-26" x="23.41" y="93.18" width="91.04" height="5.86" maskUnits="userSpaceOnUse"><g class="cls-11"><path class="cls-12" d="M25.68,98.39a2.62,2.62,0,0,1,.3-5.21l85.81.62a2.62,2.62,0,0,1,.09,5.24l-85.81-.63Z"/></g></mask><radialGradient id="radial-gradient-26" cx="81.08" cy="86.45" r="42.91" gradientTransform="translate(-9.81 -29.72) rotate(7.57)" xlink:href="#radial-gradient-17"/><filter id="luminosity-noclip-27" x="103.02" y="125.88" width="9.68" height="11.96" filterUnits="userSpaceOnUse" color-interpolation-filters="sRGB"><feFlood flood-color="#fff" result="bg"/><feBlend in="SourceGraphic" in2="bg"/></filter><mask id="mask-27" x="103.02" y="125.88" width="9.68" height="11.96" maskUnits="userSpaceOnUse"><g class="cls-15"><path class="cls-16" d="M103,125.91s8.84,4.18,9.21,11.92C112.23,137.83,115.83,125.17,103,125.91Z"/></g></mask><radialGradient id="radial-gradient-27" cx="143.22" cy="137.89" r="10.83" gradientTransform="matrix(0.99, 0.15, -0.15, 0.99, -7.08, -31.48)" xlink:href="#radial-gradient-17"/><filter id="luminosity-noclip-28" x="105.38" y="60.98" width="5.7" height="29.75" filterUnits="userSpaceOnUse" color-interpolation-filters="sRGB"><feFlood flood-color="#fff" result="bg"/><feBlend in="SourceGraphic" in2="bg"/></filter><mask id="mask-28" x="105.38" y="60.98" width="5.7" height="29.75" maskUnits="userSpaceOnUse"><g class="cls-17"><path class="cls-18" d="M111.07,88.73a2.19,2.19,0,0,1-4.37,0l-1.32-25.36a2.19,2.19,0,1,1,4.38-.29l1.32,25.36A1.22,1.22,0,0,1,111.07,88.73Z"/></g></mask><radialGradient id="radial-gradient-28" cx="310.53" cy="164.7" r="16.84" gradientTransform="translate(-90.31 372.22) rotate(-85.28)" xlink:href="#radial-gradient-17"/><filter id="luminosity-noclip-29" x="127.19" y="101.57" width="4.58" height="27.34" filterUnits="userSpaceOnUse" color-interpolation-filters="sRGB"><feFlood flood-color="#fff" result="bg"/><feBlend in="SourceGraphic" in2="bg"/></filter><mask id="mask-29" x="127.19" y="101.57" width="4.58" height="27.34" maskUnits="userSpaceOnUse"><g class="cls-19"><path class="cls-20" d="M131.76,127.12a2,2,0,0,1-1.93,1.79,2,2,0,0,1-2.08-1.94l-.56-23.31a2,2,0,1,1,4-.15l.56,23.31A2.81,2.81,0,0,1,131.76,127.12Z"/></g></mask><radialGradient id="radial-gradient-29" cx="272.03" cy="186.09" r="15.46" gradientTransform="translate(-93.62 365.25) rotate(-83.67)" xlink:href="#radial-gradient-17"/><filter id="luminosity-noclip-30" x="154.5" y="101.26" width="4.59" height="27.34" filterUnits="userSpaceOnUse" color-interpolation-filters="sRGB"><feFlood flood-color="#fff" result="bg"/><feBlend in="SourceGraphic" in2="bg"/></filter><mask id="mask-30" x="154.5" y="101.26" width="4.59" height="27.34" maskUnits="userSpaceOnUse"><g class="cls-21"><path class="cls-22" d="M159.07,126.82a2,2,0,0,1-4-.15l-.56-23.31a2,2,0,1,1,4-.16l.56,23.31A1.56,1.56,0,0,1,159.07,126.82Z"/></g></mask><radialGradient id="radial-gradient-30" cx="275.34" cy="213.21" r="15.46" gradientTransform="translate(-93.62 365.25) rotate(-83.67)" xlink:href="#radial-gradient-17"/><filter id="luminosity-noclip-31" x="71.79" y="61.48" width="5.71" height="29.75" filterUnits="userSpaceOnUse" color-interpolation-filters="sRGB"><feFlood flood-color="#fff" result="bg"/><feBlend in="SourceGraphic" in2="bg"/></filter><mask id="mask-31" x="71.79" y="61.48" width="5.71" height="29.75" maskUnits="userSpaceOnUse"><g class="cls-23"><path class="cls-24" d="M77.48,89.22a2.19,2.19,0,0,1-4.37,0L71.79,63.82a2.19,2.19,0,1,1,4.38-.29l1.32,25.36C77.49,89,77.49,89.11,77.48,89.22Z"/></g></mask><radialGradient id="radial-gradient-31" cx="307.27" cy="131.26" r="16.84" gradientTransform="translate(-90.31 372.22) rotate(-85.28)" xlink:href="#radial-gradient-17"/><filter id="luminosity-noclip-32" x="45.4" y="62.19" width="5.7" height="29.75" filterUnits="userSpaceOnUse" color-interpolation-filters="sRGB"><feFlood flood-color="#fff" result="bg"/><feBlend in="SourceGraphic" in2="bg"/></filter><mask id="mask-32" x="45.4" y="62.19" width="5.7" height="29.75" maskUnits="userSpaceOnUse"><g class="cls-25"><path class="cls-26" d="M51.1,89.92a2.19,2.19,0,0,1-4.37,0L45.41,64.52a2.19,2.19,0,1,1,4.37-.29L51.1,89.59A1.82,1.82,0,0,1,51.1,89.92Z"/></g></mask><radialGradient id="radial-gradient-32" cx="304.4" cy="105.03" r="16.83" gradientTransform="translate(-90.31 372.22) rotate(-85.28)" xlink:href="#radial-gradient-17"/></defs><title>trombone</title><g id="Camada_2" data-name="Camada 2"><g id="Layer_1" data-name="Layer 1"><path class="cls-33" d="M25.28,106.15C11.16,104,.05,91.26,0,77.14A29.61,29.61,0,0,1,8.52,56.7a29,29,0,0,1,20.83-9.09l72.59-.27a35.66,35.66,0,0,1,5.51.39c14.78,2.24,24,13.32,24.06,28.92.06,17.61-11.74,29.48-29.36,29.54l-72.58.27A29.38,29.38,0,0,1,25.28,106.15Zm81-50.9a28,28,0,0,0-4.35-.31l-72.58.26A21.53,21.53,0,0,0,14,62,21.93,21.93,0,0,0,7.6,77.1c0,10.31,8.48,20,18.82,21.53a21.73,21.73,0,0,0,3.12.23l72.59-.27c16.11-.06,21.81-11.35,21.77-21.9C123.84,59.73,111.58,56.05,106.31,55.25Z"/><path class="cls-33" d="M48.28,102.94a3.32,3.32,0,0,1-2.82-3.21L44.4,54.54a3.33,3.33,0,0,1,6.65-.16l1.06,45.19A3.33,3.33,0,0,1,48.86,103,3.77,3.77,0,0,1,48.28,102.94Z"/><path class="cls-33" d="M75.19,103.46a3.32,3.32,0,0,1-2.74-3.15L70.8,55.13a3.32,3.32,0,1,1,6.64-.24l1.66,45.17a3.31,3.31,0,0,1-3.2,3.44A2.8,2.8,0,0,1,75.19,103.46Z"/><path class="cls-33" d="M109.14,103.17a3.34,3.34,0,0,1-2.82-3.18l-1.58-45.18a3.33,3.33,0,0,1,6.65-.23L113,99.76a3.31,3.31,0,0,1-3.2,3.44A3.18,3.18,0,0,1,109.14,103.17Z"/><path class="cls-34" d="M232.77,93l-18.12-.09s-2.85-3.79-6.87-9c-19.27-24.79-45.23-26.07-61.95-26-1.07,0-95.12,3.27-112,3.88-13.09.48-18.63,4.44-19.12,13.67-.25,4.64.85,8.33,3.27,11,3,3.35,8.22,5.19,15.37,5.49,5.41,0,263,1.44,275.93,1.19,16.05-.3,26.09,7.23,27.54,20.66a20.33,20.33,0,0,1-5,16A22.33,22.33,0,0,1,315,136.94l-202.66,1.51-.06-7.6L315,129.33a14.83,14.83,0,0,0,11.22-4.6,12.88,12.88,0,0,0,3.12-10.09c-1-9.44-7.7-14.1-19.83-13.88C296.41,101,44,99.63,33.29,99.57h-.13c-9.29-.37-16.28-3-20.76-8-3.83-4.21-5.6-9.76-5.24-16.5C8.23,55.16,27.33,54.47,33.6,54.23c16.85-.61,111.42-3.82,112.49-3.89,18.26-1.19,51.36-4.47,79.75-49.7C230.06-6.1,247.46,41.45,232.77,93Z"/><path class="cls-35" d="M166.23,128.55l-4.82,0-.21-26.27,4.3,0,.12-11.4-42.7-.46-.12,11.4,3.17,0,.27,27-3.44,0,.1,11.4,43.43-.38Zm-32.4.29-.2-26.82,20,.21.21,26.43Z"/><path class="cls-35" d="M101.45,143.73V124.61s12-1.43,12,9.56S101.45,143.73,101.45,143.73Z"/><g class="cls-36"><path class="cls-37" d="M227.26,1.81s-26.78,45.12-71.32,48.94l-37.11,1.48,0,4.08s30.3-1,46.83-1.44,50.71,3.11,65.6,20.58C231.24,75.45,244.08,34.63,227.26,1.81Z"/></g><g class="cls-38"><path class="cls-39" d="M180.63,99a2.85,2.85,0,0,1,.44-5.66L312,93.64a2.85,2.85,0,1,1,0,5.7l-130.88-.28A2.09,2.09,0,0,1,180.63,99Z"/></g><g class="cls-40"><path class="cls-41" d="M128.27,101.35a5.15,5.15,0,0,1,.67-10.25l28.15.47a5.16,5.16,0,1,1,.09,10.31L129,101.4A3.83,3.83,0,0,1,128.27,101.35Z"/></g><g class="cls-42"><path class="cls-43" d="M130.89,139.64a4.89,4.89,0,0,1,.4-9.74l26.69-.22a4.88,4.88,0,1,1,.33,9.76l-26.69.22A5.93,5.93,0,0,1,130.89,139.64Z"/></g><g class="cls-44"><path class="cls-45" d="M171.31,137.22a2.85,2.85,0,0,1,.36-5.67l130.87-1.63a2.86,2.86,0,0,1,.08,5.71l-130.88,1.62A3,3,0,0,1,171.31,137.22Z"/></g><g class="cls-46"><path class="cls-47" d="M318.88,97.3s12.73,5.54,12.3,17.13-7.4,16.89-21.82,18.19c0,0,27.3,5.36,26.91-17.67C336,99.29,318.88,97.3,318.88,97.3Z"/></g><g class="cls-48"><path class="cls-49" d="M30.59,60.31a2.62,2.62,0,0,1,.12-5.23l85.77-2.41a2.62,2.62,0,0,1,.27,5.23L31,60.32Z"/></g><g class="cls-50"><path class="cls-51" d="M21.83,53.55a1.93,1.93,0,0,1,.09-3.84l63.3-1.8a1.94,1.94,0,0,1,.2,3.87L22.11,53.56A.88.88,0,0,1,21.83,53.55Z"/></g><g class="cls-52"><path class="cls-53" d="M25.34,105a1.93,1.93,0,0,1,.22-3.84l63.32.19A1.93,1.93,0,0,1,89,105.2L25.63,105A1.42,1.42,0,0,1,25.34,105Z"/></g><g class="cls-54"><path class="cls-55" d="M25.68,98.39a2.62,2.62,0,0,1,.3-5.21l85.81.62a2.62,2.62,0,0,1,.09,5.24l-85.81-.63Z"/></g><g class="cls-56"><path class="cls-57" d="M103,125.91s8.84,4.18,9.21,11.92C112.23,137.83,115.83,125.17,103,125.91Z"/></g><g class="cls-58"><path class="cls-59" d="M111.07,88.73a2.19,2.19,0,0,1-4.37,0l-1.32-25.36a2.19,2.19,0,1,1,4.38-.29l1.32,25.36A1.22,1.22,0,0,1,111.07,88.73Z"/></g><g class="cls-60"><path class="cls-61" d="M131.76,127.12a2,2,0,0,1-1.93,1.79,2,2,0,0,1-2.08-1.94l-.56-23.31a2,2,0,1,1,4-.15l.56,23.31A2.81,2.81,0,0,1,131.76,127.12Z"/></g><g class="cls-62"><path class="cls-63" d="M159.07,126.82a2,2,0,0,1-4-.15l-.56-23.31a2,2,0,1,1,4-.16l.56,23.31A1.56,1.56,0,0,1,159.07,126.82Z"/></g><g class="cls-64"><path class="cls-65" d="M77.48,89.22a2.19,2.19,0,0,1-4.37,0L71.79,63.82a2.19,2.19,0,1,1,4.38-.29l1.32,25.36C77.49,89,77.49,89.11,77.48,89.22Z"/></g><g class="cls-66"><path class="cls-67" d="M51.1,89.92a2.19,2.19,0,0,1-4.37,0L45.41,64.52a2.19,2.19,0,1,1,4.37-.29L51.1,89.59A1.82,1.82,0,0,1,51.1,89.92Z"/></g></g></g></svg>